<svg width="107" height="112" viewBox="0 0 107 112" fill="none" xmlns="http://www.w3.org/2000/svg">
<g filter="url(#filter0_d)">
<path fill-rule="evenodd" clip-rule="evenodd" d="M56.8495 24.9057L79.1605 37.5942C80.179 38.1735 81.0248 39.0066 81.6129 40.0099C82.2009 41.0132 82.5105 42.1513 82.5105 43.3098V68.6901C82.5105 69.8486 82.2009 70.9867 81.6129 71.99C81.0248 72.9933 80.179 73.8265 79.1605 74.4057L56.8495 87.0942C55.831 87.6735 54.6756 87.9785 53.4995 87.9785C52.3234 87.9785 51.1681 87.6735 50.1495 87.0942L27.8385 74.4057C26.82 73.8265 25.9742 72.9933 25.3862 71.99C24.7982 70.9867 24.4886 69.8486 24.4885 68.6901V43.3098C24.4886 42.1513 24.7982 41.0132 25.3862 40.0099C25.9742 39.0066 26.82 38.1735 27.8385 37.5942L50.1495 24.9057C51.1681 24.3264 52.3234 24.0215 53.4995 24.0215C54.6756 24.0215 55.831 24.3264 56.8495 24.9057Z" fill="url(#paint0_linear)"/>
<path d="M53.8842 71.3336C62.4912 71.3336 69.4684 64.4604 69.4684 55.982C69.4684 47.5035 62.4912 40.6304 53.8842 40.6304C45.2773 40.6304 38.3 47.5035 38.3 55.982C38.3 64.4604 45.2773 71.3336 53.8842 71.3336Z" fill="#1B1E36"/>
<path d="M53.9397 32.8999C51.0419 32.8999 48.6919 43.2586 48.6919 56.0362C48.6919 68.8155 51.0419 79.1742 53.9413 79.1742C56.8408 79.1742 59.1925 68.8138 59.1925 56.0362C59.1925 43.2586 56.8391 32.8999 53.9397 32.8999ZM54.3031 77.8674C53.9715 78.303 53.6398 77.9763 53.6398 77.9763C52.3032 76.4517 51.6365 73.6203 51.6365 73.6203C49.3016 66.2167 49.8577 50.3206 49.8577 50.3206C50.9548 37.6998 52.9514 34.7182 53.6298 34.0566C53.6995 33.9891 53.7911 33.9479 53.8885 33.9404C53.9859 33.9328 54.0829 33.9594 54.1624 34.0153C55.1473 34.705 55.9748 37.581 55.9748 37.581C58.4169 46.5091 58.1958 54.8928 58.1958 54.8928C58.4169 62.1891 56.9731 70.3533 56.9731 70.3533C55.8592 76.5606 54.3031 77.8674 54.3031 77.8674Z" fill="#6F7390"/>
<path d="M74.3126 44.5225C72.8688 42.0442 62.5793 45.1908 51.3233 51.5515C40.0673 57.909 32.1261 65.0716 33.5683 67.5499C35.0104 70.0282 45.3016 66.88 56.5576 60.5209C67.8136 54.1618 75.7565 46.9992 74.3126 44.5209V44.5225ZM34.8982 67.21C34.3455 67.1407 34.4694 66.6936 34.4694 66.6936C35.1478 64.7961 37.3052 62.8161 37.3052 62.8161C42.6652 57.1351 56.9395 49.6986 56.9395 49.6986C68.5975 44.3575 72.2189 44.5836 73.1368 44.8311C73.2313 44.8567 73.3135 44.9146 73.3687 44.9944C73.4239 45.0742 73.4486 45.1707 73.4383 45.2667C73.3277 46.4514 71.2005 48.5898 71.2005 48.5898C64.5591 55.1238 57.0652 59.1069 57.0652 59.1069C50.7504 62.9266 42.8411 65.7547 42.8411 65.7547C36.8228 67.8882 34.8965 67.21 34.8965 67.21H34.8982Z" fill="#6F7390"/>
<path d="M74.2622 67.6322C75.7161 65.1622 67.7967 57.9632 56.5776 51.5579C45.3584 45.151 35.0706 41.9648 33.6167 44.4415C32.1628 46.9165 40.0822 54.1105 51.3063 60.5158C62.5305 66.9227 72.8066 70.1072 74.2605 67.6322H74.2622ZM34.5815 45.3952C34.3654 44.8936 34.821 44.7731 34.821 44.7731C36.8276 44.3986 39.65 45.2516 39.65 45.2516C47.3232 46.9726 61.0063 55.4156 61.0063 55.4156C71.542 62.6756 73.1601 65.8766 73.4013 66.7841C73.4256 66.8772 73.4158 66.9758 73.3735 67.0625C73.3312 67.1491 73.2592 67.2183 73.1701 67.2577C72.073 67.7527 69.13 67.0151 69.13 67.0151C60.0616 64.6193 52.8071 60.2303 52.8071 60.2303C46.2914 56.7686 39.8477 51.4408 39.8477 51.4408C34.95 47.3818 34.5831 45.4001 34.5831 45.4001L34.5815 45.3952Z" fill="#6F7390"/>
<path d="M53.8836 58.7043C55.41 58.7043 56.6474 57.4854 56.6474 55.9818C56.6474 54.4782 55.41 53.2593 53.8836 53.2593C52.3572 53.2593 51.1199 54.4782 51.1199 55.9818C51.1199 57.4854 52.3572 58.7043 53.8836 58.7043Z" fill="#B7B9C8"/>
<path d="M65.2138 47.1789C66.1389 47.1789 66.8888 46.4402 66.8888 45.5289C66.8888 44.6176 66.1389 43.8789 65.2138 43.8789C64.2887 43.8789 63.5388 44.6176 63.5388 45.5289C63.5388 46.4402 64.2887 47.1789 65.2138 47.1789Z" fill="#B7B9C8"/>
<path d="M38.9082 52.7331C39.8332 52.7331 40.5832 51.9944 40.5832 51.0831C40.5832 50.1718 39.8332 49.4331 38.9082 49.4331C37.9831 49.4331 37.2332 50.1718 37.2332 51.0831C37.2332 51.9944 37.9831 52.7331 38.9082 52.7331Z" fill="#B7B9C8"/>
<path d="M50.6252 72.7658C51.5503 72.7658 52.3002 72.0271 52.3002 71.1158C52.3002 70.2046 51.5503 69.4658 50.6252 69.4658C49.7001 69.4658 48.9502 70.2046 48.9502 71.1158C48.9502 72.0271 49.7001 72.7658 50.6252 72.7658Z" fill="#B7B9C8"/>
</g>
<defs>
<filter id="filter0_d" x="-4" y="-1" width="115" height="114" filterUnits="userSpaceOnUse" color-interpolation-filters="sRGB">
<feFlood flood-opacity="0" result="BackgroundImageFix"/>
<feColorMatrix in="SourceAlpha" type="matrix" values="0 0 0 0 0 0 0 0 0 0 0 0 0 0 0 0 0 0 127 0"/>
<feOffset/>
<feGaussianBlur stdDeviation="12"/>
<feColorMatrix type="matrix" values="0 0 0 0 0.2 0 0 0 0 0.180392 0 0 0 0 0.329412 0 0 0 0.06 0"/>
<feBlend mode="normal" in2="BackgroundImageFix" result="effect1_dropShadow"/>
<feBlend mode="normal" in="SourceGraphic" in2="effect1_dropShadow" result="shape"/>
</filter>
<linearGradient id="paint0_linear" x1="37.457" y1="16.204" x2="89.4031" y2="117.866" gradientUnits="userSpaceOnUse">
<stop stop-color="#383C58"/>
<stop offset="1" stop-color="#1B1E36"/>
</linearGradient>
</defs>
</svg>
