<svg width="110" height="117" viewBox="0 0 110 117" fill="none" xmlns="http://www.w3.org/2000/svg">
<g filter="url(#filter0_d)">
<path fill-rule="evenodd" clip-rule="evenodd" d="M58.4997 25.0503L81.8097 38.7001C82.8738 39.3232 83.7575 40.2195 84.3718 41.2988C84.9862 42.3781 85.3097 43.6024 85.3097 44.8487V72.1517C85.3097 73.398 84.9862 74.6223 84.3718 75.7016C83.7575 76.7809 82.8738 77.6772 81.8097 78.3003L58.4997 91.9501C57.4356 92.5733 56.2285 92.9013 54.9997 92.9013C53.7709 92.9013 52.5638 92.5733 51.4997 91.9501L28.1897 78.3003C27.1256 77.6772 26.2419 76.7809 25.6276 75.7016C25.0132 74.6223 24.6897 73.398 24.6897 72.1517V44.8487C24.6897 43.6024 25.0132 42.3781 25.6276 41.2988C26.2419 40.2195 27.1256 39.3232 28.1897 38.7001L51.4997 25.0503C52.5638 24.4272 53.7709 24.0991 54.9997 24.0991C56.2285 24.0991 57.4356 24.4272 58.4997 25.0503Z" fill="#97DA52"/>
<path fill-rule="evenodd" clip-rule="evenodd" d="M67.0944 65.0875C65.6857 66.7844 63.8919 67.5068 63.1009 67.8387C62.7107 68.002 62.0334 68.247 61.3019 68.4919L62.5532 73.2276L59.6797 74.0086L58.4494 69.3493L56.2619 69.9439L57.4904 74.6033L54.6169 75.3843L53.3867 70.7249L47.7342 72.262L47.4017 68.6002L49.1184 68.1334C49.6959 67.9772 49.9234 67.8565 50.1037 67.5601C50.2839 67.2619 50.2437 66.8944 50.1684 66.6069L46.9834 54.5475C46.7839 53.7914 46.6684 53.605 46.2239 53.3086C45.7794 53.0139 44.9604 53.1808 44.5054 53.305L42.8447 53.7559L42.0449 50.7295L47.6974 49.1941L46.4637 44.5223L49.3372 43.7413L50.5727 48.4131L52.7602 47.8185L51.5264 43.1467L54.3999 42.3657L55.6494 47.0925C57.8264 46.6452 59.5309 46.6257 61.1969 47.2913C63.3547 48.1504 63.8779 50.5183 63.9864 51.0881C64.0932 51.6561 64.1352 52.7992 63.8359 53.6245C63.5367 54.4499 62.5374 55.467 62.5374 55.467C62.5374 55.467 64.0127 55.3853 65.1922 55.8681C66.3699 56.3509 67.4444 57.4745 67.9134 59.4199C68.3859 61.3653 68.5032 63.3924 67.0944 65.0875ZM56.9444 59.3507C55.4954 59.6418 53.6947 60.2346 53.6947 60.2346L55.3467 66.4844C55.3467 66.4844 57.2647 66.0087 58.5142 65.5667C59.7654 65.123 60.9939 64.4396 61.5557 63.8929C62.1157 63.3462 62.7562 62.5581 62.3782 61.1292C62.0019 59.6986 60.9029 59.3542 60.2939 59.23C59.6849 59.1022 58.3934 59.0596 56.9444 59.3507ZM55.3187 56.6829C56.3564 56.358 57.4047 55.8096 58.0907 55.1422C58.7784 54.473 59.0479 53.6423 58.7417 52.5862C58.4337 51.5318 57.4992 50.8218 56.2199 50.7757C54.9407 50.7277 54.1409 50.9177 53.2379 51.1484C52.3349 51.3792 51.4424 51.7093 51.4424 51.7093L52.9299 57.3325C52.9299 57.3325 54.2827 57.0095 55.3187 56.6829Z" fill="white"/>
</g>
<defs>
<filter id="filter0_d" x="-4" y="-1" width="118" height="119" filterUnits="userSpaceOnUse" color-interpolation-filters="sRGB">
<feFlood flood-opacity="0" result="BackgroundImageFix"/>
<feColorMatrix in="SourceAlpha" type="matrix" values="0 0 0 0 0 0 0 0 0 0 0 0 0 0 0 0 0 0 127 0"/>
<feOffset/>
<feGaussianBlur stdDeviation="12"/>
<feColorMatrix type="matrix" values="0 0 0 0 0.2 0 0 0 0 0.180392 0 0 0 0 0.329412 0 0 0 0.06 0"/>
<feBlend mode="normal" in2="BackgroundImageFix" result="effect1_dropShadow"/>
<feBlend mode="normal" in="SourceGraphic" in2="effect1_dropShadow" result="shape"/>
</filter>
</defs>
</svg>
