<svg width="111" height="117" viewBox="0 0 111 117" fill="none" xmlns="http://www.w3.org/2000/svg">
<g filter="url(#filter0_d)">
<path fill-rule="evenodd" clip-rule="evenodd" d="M59.0496 25.0503L82.6926 38.7001C83.7719 39.3232 84.6682 40.2195 85.2913 41.2988C85.9145 42.3781 86.2426 43.6024 86.2426 44.8487V72.1517C86.2426 73.398 85.9145 74.6223 85.2913 75.7016C84.6682 76.7809 83.7719 77.6772 82.6926 78.3003L59.0496 91.9501C57.9703 92.5733 56.7459 92.9013 55.4996 92.9013C54.2533 92.9013 53.0289 92.5733 51.9496 91.9501L28.3066 78.3003C27.2273 77.6772 26.331 76.7809 25.7079 75.7016C25.0847 74.6223 24.7566 73.398 24.7566 72.1517V44.8487C24.7566 43.6024 25.0847 42.3781 25.7079 41.2988C26.331 40.2195 27.2273 39.3232 28.3066 38.7001L51.9496 25.0503C53.0289 24.4272 54.2533 24.0991 55.4996 24.0991C56.7459 24.0991 57.9703 24.4272 59.0496 25.0503Z" fill="#EEBF32"/>
<path d="M49.2907 55.9444L55.4908 49.7425L61.6962 55.9479L65.3048 52.3394L55.4908 42.5254L45.6821 52.3358L49.2907 55.9444ZM39.5247 58.4915L43.1332 54.8829L46.7418 58.4915L43.1332 62.1001L39.5247 58.4915ZM49.2907 61.0404L55.4908 67.2423L61.6962 61.0369L65.3065 64.6437L65.3048 64.6454L55.4908 74.4594L45.6804 64.649L45.6768 64.6437L49.2907 61.0404ZM64.2415 58.4933L67.8501 54.8847L71.4587 58.4933L67.8501 62.1019L64.2415 58.4933Z" fill="white"/>
<path d="M59.1503 58.4899H59.1521L55.4903 54.8281L52.7852 57.535L52.4745 57.8456L51.832 58.4882L51.8267 58.4917L51.832 58.497L55.4903 62.1571L59.1521 58.4953L59.1539 58.4917H59.1503" fill="white"/>
</g>
<defs>
<filter id="filter0_d" x="-4" y="-1" width="119" height="119" filterUnits="userSpaceOnUse" color-interpolation-filters="sRGB">
<feFlood flood-opacity="0" result="BackgroundImageFix"/>
<feColorMatrix in="SourceAlpha" type="matrix" values="0 0 0 0 0 0 0 0 0 0 0 0 0 0 0 0 0 0 127 0"/>
<feOffset/>
<feGaussianBlur stdDeviation="12"/>
<feColorMatrix type="matrix" values="0 0 0 0 0.2 0 0 0 0 0.180392 0 0 0 0 0.329412 0 0 0 0.06 0"/>
<feBlend mode="normal" in2="BackgroundImageFix" result="effect1_dropShadow"/>
<feBlend mode="normal" in="SourceGraphic" in2="effect1_dropShadow" result="shape"/>
</filter>
</defs>
</svg>
