<svg width="110" height="116" viewBox="0 0 110 116" fill="none" xmlns="http://www.w3.org/2000/svg">
<g filter="url(#filter0_d)">
<path fill-rule="evenodd" clip-rule="evenodd" d="M58.4995 25.0213L81.8095 38.4788C82.8736 39.0932 83.7572 39.9768 84.3716 41.0409C84.986 42.105 85.3094 43.3121 85.3095 44.5408V71.4593C85.3094 72.688 84.986 73.8951 84.3716 74.9592C83.7572 76.0233 82.8736 76.9069 81.8095 77.5213L58.4995 90.9788C57.4353 91.5932 56.2282 91.9166 54.9995 91.9166C53.7707 91.9166 52.5636 91.5932 51.4995 90.9788L28.1895 77.5213C27.1253 76.9069 26.2417 76.0233 25.6273 74.9592C25.0129 73.8951 24.6895 72.688 24.6895 71.4593V44.5408C24.6895 43.3121 25.0129 42.105 25.6273 41.0409C26.2417 39.9768 27.1253 39.0932 28.1895 38.4788L51.4995 25.0213C52.5636 24.4069 53.7707 24.0835 54.9995 24.0835C56.2282 24.0835 57.4353 24.4069 58.4995 25.0213Z" fill="#F9DF64"/>
<path fill-rule="evenodd" clip-rule="evenodd" d="M62.3448 69.2298C60.2868 69.9735 58.3775 69.6918 57.5288 69.5798C57.1105 69.5255 56.4035 69.396 55.6493 69.2403L54.398 73.9075L51.5245 73.1375L52.7548 68.5455L50.5673 67.9593L49.337 72.5513L46.4635 71.7813L47.6938 67.1893L42.0413 65.6738L43.5568 62.3803L45.2753 62.8423C45.8528 62.9963 46.1083 63.0068 46.411 62.844C46.7138 62.6795 46.8608 62.3453 46.936 62.0635L50.121 50.174C50.3223 49.4285 50.3153 49.2115 50.0755 48.7373C49.8358 48.2613 49.043 47.9953 48.5898 47.8745L46.929 47.4283L47.7288 44.4463L53.3813 45.96L54.615 41.354L57.4885 42.124L56.2548 46.73L58.4423 47.3163L59.6778 42.7103L62.5513 43.4803L61.3018 48.1423C63.4088 48.8493 64.8945 49.684 66.0093 51.0858C67.453 52.897 66.7408 55.1808 66.5518 55.7215C66.3645 56.2605 65.8395 57.2563 65.1728 57.811C64.506 58.3675 63.141 58.735 63.141 58.735C63.141 58.735 64.457 59.4053 65.241 60.4063C66.0215 61.4073 66.3995 62.9035 65.8465 64.7988C65.297 66.6958 64.3993 68.4843 62.3448 69.2298ZM56.3808 59.2548C55.3128 58.9124 54.2289 58.6221 53.1328 58.385L51.4808 64.5485C51.4808 64.5485 53.376 65.0998 54.678 65.3483C55.9783 65.595 57.38 65.6265 58.136 65.4393C58.8885 65.252 59.8335 64.9003 60.2115 63.4915C60.5895 62.081 59.809 61.2393 59.3418 60.8263C58.878 60.4133 57.779 59.7308 56.3808 59.2565V59.2548ZM56.288 56.166C57.3468 56.4058 58.5263 56.4635 59.4503 56.236C60.3743 56.0085 61.0183 55.431 61.272 54.3775C61.5258 53.324 61.0655 52.2495 59.9805 51.5705C58.8955 50.8915 58.1115 50.6518 57.2155 50.398C56.3195 50.1443 55.385 49.978 55.385 49.978L53.8975 55.5255C53.8975 55.5255 55.231 55.9245 56.288 56.166Z" fill="white"/>
</g>
<defs>
<filter id="filter0_d" x="-4" y="-1" width="118" height="118" filterUnits="userSpaceOnUse" color-interpolation-filters="sRGB">
<feFlood flood-opacity="0" result="BackgroundImageFix"/>
<feColorMatrix in="SourceAlpha" type="matrix" values="0 0 0 0 0 0 0 0 0 0 0 0 0 0 0 0 0 0 127 0"/>
<feOffset/>
<feGaussianBlur stdDeviation="12"/>
<feColorMatrix type="matrix" values="0 0 0 0 0.2 0 0 0 0 0.180392 0 0 0 0 0.329412 0 0 0 0.06 0"/>
<feBlend mode="normal" in2="BackgroundImageFix" result="effect1_dropShadow"/>
<feBlend mode="normal" in="SourceGraphic" in2="effect1_dropShadow" result="shape"/>
</filter>
</defs>
</svg>
