<svg width="329" height="122" viewBox="0 0 329 122" fill="none" xmlns="http://www.w3.org/2000/svg">
<g filter="url(#filter0_d)">
<rect x="23" y="23" width="283" height="76" rx="6" fill="white"/>
</g>
<path d="M248.522 66.1932C251.21 66.1932 252.783 64 252.783 60.1875C252.783 56.4034 251.187 54.2045 248.522 54.2045C245.852 54.2045 244.261 56.3977 244.255 60.1875C244.255 63.9943 245.829 66.1875 248.522 66.1932ZM248.522 64.6761C246.948 64.6761 245.999 63.0966 245.999 60.1875C246.005 57.2898 246.954 55.6932 248.522 55.6932C250.085 55.6932 251.039 57.2898 251.039 60.1875C251.039 63.0966 250.09 64.6761 248.522 64.6761ZM255.504 66.108C256.123 66.108 256.64 65.6023 256.64 64.9716C256.64 64.3523 256.123 63.8409 255.504 63.8409C254.879 63.8409 254.367 64.3523 254.367 64.9716C254.367 65.6023 254.879 66.108 255.504 66.108ZM262.506 66.1932C265.194 66.1932 266.768 64 266.768 60.1875C266.768 56.4034 265.171 54.2045 262.506 54.2045C259.836 54.2045 258.245 56.3977 258.239 60.1875C258.239 63.9943 259.813 66.1875 262.506 66.1932ZM262.506 64.6761C260.933 64.6761 259.984 63.0966 259.984 60.1875C259.989 57.2898 260.938 55.6932 262.506 55.6932C264.069 55.6932 265.023 57.2898 265.023 60.1875C265.023 63.0966 264.075 64.6761 262.506 64.6761ZM272.653 54.2045C270.21 54.1818 268.613 55.9375 268.613 58.142C268.619 60.3636 270.227 61.9659 272.244 61.9659C273.477 61.9659 274.533 61.3636 275.13 60.3864H275.221C275.215 63.0625 274.21 64.625 272.505 64.625C271.391 64.625 270.675 63.9432 270.448 62.9489H268.715C268.971 64.8295 270.425 66.1591 272.505 66.1591C275.21 66.1591 276.903 63.8352 276.903 59.7614C276.897 55.5114 274.727 54.2216 272.653 54.2045ZM272.658 55.6818C274.005 55.6818 274.999 56.8239 274.999 58.1023C275.005 59.3977 273.954 60.5341 272.624 60.5341C271.289 60.5341 270.323 59.4659 270.317 58.1193C270.317 56.767 271.323 55.6818 272.658 55.6818ZM278.955 66H286.614V64.4943H281.376V64.4091L283.688 61.9886C285.819 59.8352 286.427 58.8068 286.427 57.5057C286.427 55.6364 284.904 54.2045 282.711 54.2045C280.535 54.2045 278.944 55.6136 278.944 57.7386H280.62C280.614 56.4886 281.421 55.6705 282.677 55.6705C283.859 55.6705 284.756 56.3977 284.756 57.5568C284.756 58.5852 284.143 59.3239 282.893 60.6477L278.955 64.7273V66Z" fill="#332E54"/>
<path d="M103.992 48.4205H105.685C105.634 46.5568 103.987 45.2045 101.623 45.2045C99.2876 45.2045 97.4979 46.5398 97.4979 48.5455C97.4979 50.1648 98.657 51.1136 100.526 51.6193L101.901 51.9943C103.146 52.3239 104.106 52.733 104.106 53.767C104.106 54.9034 103.021 55.6534 101.526 55.6534C100.174 55.6534 99.049 55.0511 98.9467 53.7841H97.1854C97.299 55.892 98.9297 57.1932 101.538 57.1932C104.271 57.1932 105.844 55.7557 105.844 53.7841C105.844 51.6875 103.975 50.875 102.498 50.5114L101.362 50.2159C100.452 49.983 99.2422 49.5568 99.2479 48.4432C99.2479 47.4545 100.151 46.7216 101.583 46.7216C102.918 46.7216 103.867 47.3466 103.992 48.4205ZM111.567 57.1761C113.471 57.1761 114.817 56.2386 115.204 54.8182L113.596 54.5284C113.289 55.3523 112.55 55.7727 111.585 55.7727C110.13 55.7727 109.153 54.8295 109.107 53.1477H115.312V52.5455C115.312 49.392 113.425 48.1591 111.448 48.1591C109.016 48.1591 107.414 50.0114 107.414 52.6932C107.414 55.4034 108.994 57.1761 111.567 57.1761ZM109.113 51.875C109.181 50.6364 110.079 49.5625 111.46 49.5625C112.778 49.5625 113.641 50.5398 113.647 51.875H109.113ZM118.896 51.8182C118.896 50.4261 119.748 49.6307 120.93 49.6307C122.083 49.6307 122.782 50.3864 122.782 51.6534V57H124.481V51.4489C124.481 49.2898 123.293 48.1591 121.509 48.1591C120.197 48.1591 119.339 48.767 118.935 49.6932H118.827V48.2727H117.197V57H118.896V51.8182ZM130.026 57.1705C131.617 57.1705 132.242 56.1989 132.549 55.642H132.691V57H134.35V45.3636H132.651V49.6875H132.549C132.242 49.1477 131.663 48.1591 130.038 48.1591C127.93 48.1591 126.379 49.8239 126.379 52.6534C126.379 55.4773 127.907 57.1705 130.026 57.1705ZM130.401 55.7216C128.884 55.7216 128.094 54.3864 128.094 52.6364C128.094 50.9034 128.867 49.6023 130.401 49.6023C131.884 49.6023 132.68 50.8125 132.68 52.6364C132.68 54.4716 131.867 55.7216 130.401 55.7216Z" fill="#332E54"/>
<path opacity="0.6" d="M97.0783 67.2727V76H98.0669V69.3693H98.1522L100.879 76H101.834L104.561 69.3693H104.646V76H105.635V67.2727H104.374L101.408 74.517H101.306L98.3397 67.2727H97.0783ZM109.544 76.1534C110.686 76.1534 111.282 75.5398 111.487 75.1136H111.538V76H112.544V71.6875C112.544 69.608 110.959 69.3693 110.123 69.3693C109.135 69.3693 108.01 69.7102 107.498 70.9034L108.453 71.2443C108.675 70.767 109.199 70.2557 110.157 70.2557C111.082 70.2557 111.538 70.7457 111.538 71.5852V71.6193C111.538 72.1051 111.044 72.0625 109.851 72.2159C108.636 72.3736 107.311 72.642 107.311 74.142C107.311 75.4205 108.3 76.1534 109.544 76.1534ZM109.697 75.25C108.896 75.25 108.317 74.892 108.317 74.1932C108.317 73.4261 109.015 73.1875 109.8 73.0852C110.226 73.0341 111.368 72.9148 111.538 72.7102V73.6307C111.538 74.4489 110.89 75.25 109.697 75.25ZM114.793 78.4545C115.7 78.4545 116.34 77.973 116.719 76.9545L119.506 69.4716L118.406 69.4545L116.6 74.6705H116.531L114.725 69.4545H113.634L116.054 76.0341L115.867 76.5455C115.5 77.5426 115.048 77.6364 114.316 77.4489L114.06 78.3352C114.162 78.3864 114.452 78.4545 114.793 78.4545ZM127.263 67.2727H126.206L124.024 68.7216V69.7955L126.155 68.3807H126.206V76H127.263V67.2727ZM132.67 76.1193C134.434 76.1406 135.585 74.8111 135.585 73.1875C135.585 71.5 134.336 70.2898 132.841 70.2898C131.942 70.2898 131.17 70.7287 130.693 71.4489H130.625C130.629 69.3224 131.456 68.0909 132.807 68.0909C133.727 68.0909 134.281 68.6705 134.477 69.4545H135.517C135.304 68.0994 134.273 67.1534 132.807 67.1534C130.842 67.1534 129.636 68.892 129.636 71.9773C129.636 75.2031 131.238 76.1023 132.67 76.1193ZM132.67 75.1818C131.575 75.1818 130.774 74.2486 130.778 73.2045C130.782 72.1605 131.622 71.2273 132.704 71.2273C133.774 71.2273 134.562 72.1051 134.562 73.1875C134.562 74.2955 133.74 75.1818 132.67 75.1818ZM138.368 74.8068H137.277L137.226 75.2841C137.102 76.4389 136.859 77.5895 136.748 78.1307H137.515C137.72 77.5511 138.155 76.2386 138.3 75.267L138.368 74.8068ZM146.367 67.1534C144.595 67.1321 143.453 68.4659 143.453 70.0682C143.453 71.7557 144.697 72.9659 146.197 72.9659C147.1 72.9659 147.867 72.5227 148.345 71.8068H148.413C148.413 73.9545 147.578 75.1818 146.231 75.1818C145.311 75.1818 144.748 74.6023 144.561 73.8011H143.521C143.725 75.1818 144.765 76.1193 146.231 76.1193C148.191 76.1193 149.401 74.3807 149.401 71.2784C149.401 68.0739 147.799 67.1705 146.367 67.1534ZM146.367 68.0909C147.458 68.0909 148.259 69.0284 148.259 70.0511C148.259 71.0909 147.407 72.0284 146.333 72.0284C145.259 72.0284 144.475 71.1591 144.475 70.0682C144.475 68.9773 145.294 68.0909 146.367 68.0909ZM151.827 74.8835C152.249 74.8835 152.594 74.5384 152.594 74.1165C152.594 73.6946 152.249 73.3494 151.827 73.3494C151.405 73.3494 151.06 73.6946 151.06 74.1165C151.06 74.5384 151.405 74.8835 151.827 74.8835ZM151.827 70.4688C152.249 70.4688 152.594 70.1236 152.594 69.7017C152.594 69.2798 152.249 68.9347 151.827 68.9347C151.405 68.9347 151.06 69.2798 151.06 69.7017C151.06 70.1236 151.405 70.4688 151.827 70.4688ZM157.331 76.1193C159.023 76.1193 160.28 75.0582 160.28 73.6307C160.28 72.5227 159.623 71.7173 158.524 71.5341V71.4659C159.406 71.1974 159.956 70.473 159.956 69.4886C159.956 68.2528 158.98 67.1534 157.365 67.1534C155.856 67.1534 154.604 68.0824 154.552 69.4545H155.575C155.613 68.5852 156.44 68.0739 157.348 68.0739C158.311 68.0739 158.933 68.6577 158.933 69.5398C158.933 70.4602 158.213 71.0568 157.177 71.0568H156.479V71.9943H157.177C158.503 71.9943 159.24 72.6676 159.24 73.6307C159.24 74.5554 158.434 75.1818 157.314 75.1818C156.304 75.1818 155.503 74.6619 155.439 73.8182H154.365C154.429 75.1903 155.639 76.1193 157.331 76.1193ZM161.818 74.2102H165.926V76H166.932V74.2102H168.125V73.2727H166.932V67.2727H165.653L161.818 73.3409V74.2102ZM165.926 73.2727H162.96V73.2045L165.858 68.6193H165.926V73.2727ZM173.608 76L174.486 73.5284H178.014L178.892 76H180L176.796 67.2727H175.705L172.5 76H173.608ZM174.818 72.5909L176.216 68.6534H176.284L177.682 72.5909H174.818ZM181.36 67.2727V76H182.348V69.3693H182.433L185.161 76H186.115L188.843 69.3693H188.928V76H189.916V67.2727H188.655L185.689 74.517H185.587L182.621 67.2727H181.36Z" fill="#332E54"/>
<path d="M52.75 61H69.25" stroke="#554CC2" stroke-linecap="round" stroke-linejoin="round"/>
<path d="M62.5 54.25L69.25 61L62.5 67.75" stroke="#554CC2" stroke-linecap="round" stroke-linejoin="round"/>
<circle opacity="0.17" cx="61" cy="61" r="19.5" stroke="#554CC2"/>
<defs>
<filter id="filter0_d" x="0" y="0" width="329" height="122" filterUnits="userSpaceOnUse" color-interpolation-filters="sRGB">
<feFlood flood-opacity="0" result="BackgroundImageFix"/>
<feColorMatrix in="SourceAlpha" type="matrix" values="0 0 0 0 0 0 0 0 0 0 0 0 0 0 0 0 0 0 127 0"/>
<feOffset/>
<feGaussianBlur stdDeviation="11.5"/>
<feColorMatrix type="matrix" values="0 0 0 0 0.2 0 0 0 0 0.180392 0 0 0 0 0.329412 0 0 0 0.07 0"/>
<feBlend mode="normal" in2="BackgroundImageFix" result="effect1_dropShadow"/>
<feBlend mode="normal" in="SourceGraphic" in2="effect1_dropShadow" result="shape"/>
</filter>
</defs>
</svg>
