<svg width="146" height="146" viewBox="0 0 146 146" fill="none" xmlns="http://www.w3.org/2000/svg">
<g filter="url(#filter0_d)">
<rect x="23" y="23" width="100" height="100" rx="6" fill="white"/>
</g>
<path fill-rule="evenodd" clip-rule="evenodd" d="M76.0028 45.7742L95.9982 56.8841C96.911 57.3913 97.669 58.1208 98.196 58.9993C98.723 59.8778 99.0005 60.8743 99.0005 61.8886V84.1114C99.0005 85.1257 98.723 86.1222 98.196 87.0007C97.669 87.8792 96.911 88.6087 95.9982 89.1159L76.0028 100.226C75.09 100.733 74.0545 101 73.0005 101C71.9465 101 70.911 100.733 69.9982 100.226L50.0028 89.1159C49.09 88.6087 48.332 87.8792 47.805 87.0007C47.278 86.1222 47.0005 85.1257 47.0005 84.1114V61.8886C47.0005 60.8743 47.278 59.8778 47.805 58.9993C48.332 58.1208 49.09 57.3913 50.0028 56.8841L69.9982 45.7742C70.911 45.267 71.9465 45 73.0005 45C74.0545 45 75.09 45.267 76.0028 45.7742Z" fill="#554CC2"/>
<path d="M72.9938 61.1098L67.7424 68.5578L65.3373 80.826L73.0005 85.5482L80.6584 80.8302L78.1735 68.5578L72.9938 61.1098ZM64.0005 81.4518L66.6315 68.0342L73.0005 59L79.2831 68.0342L82.0005 81.4532L73.0005 87L64.0005 81.4532V81.4518Z" fill="white"/>
<path d="M67.9633 68.2442L72.9928 83.2214L77.9546 68.2456L72.9583 61.1098L67.9633 68.2428V68.2442ZM66.6318 68.0342L72.9569 59L79.2834 68.0342L73.0008 87L66.6318 68.0342Z" fill="white"/>
<defs>
<filter id="filter0_d" x="0" y="0" width="146" height="146" filterUnits="userSpaceOnUse" color-interpolation-filters="sRGB">
<feFlood flood-opacity="0" result="BackgroundImageFix"/>
<feColorMatrix in="SourceAlpha" type="matrix" values="0 0 0 0 0 0 0 0 0 0 0 0 0 0 0 0 0 0 127 0"/>
<feOffset/>
<feGaussianBlur stdDeviation="11.5"/>
<feColorMatrix type="matrix" values="0 0 0 0 0.2 0 0 0 0 0.180392 0 0 0 0 0.329412 0 0 0 0.07 0"/>
<feBlend mode="normal" in2="BackgroundImageFix" result="effect1_dropShadow"/>
<feBlend mode="normal" in="SourceGraphic" in2="effect1_dropShadow" result="shape"/>
</filter>
</defs>
</svg>
