<svg width="172" height="150" viewBox="0 0 172 150" fill="none" xmlns="http://www.w3.org/2000/svg">
<path d="M144.25 140.216C144.714 139.948 145.286 139.948 145.75 140.216L148.08 141.562C148.544 141.83 148.83 142.325 148.83 142.861V145.551C148.83 146.087 148.544 146.582 148.08 146.85L145.75 148.196C145.286 148.464 144.714 148.464 144.25 148.196L141.92 146.85C141.456 146.582 141.17 146.087 141.17 145.551V142.861C141.17 142.325 141.456 141.83 141.92 141.562L144.25 140.216Z" fill="white" stroke="#665EC8"/>
<path d="M4.25 86.0104C4.7141 85.7424 5.2859 85.7424 5.75 86.0104L8.08013 87.3557C8.54423 87.6236 8.83013 88.1188 8.83013 88.6547V91.3453C8.83013 91.8812 8.54423 92.3764 8.08013 92.6443L5.75 93.9896C5.2859 94.2576 4.7141 94.2576 4.25 93.9896L1.91987 92.6443C1.45577 92.3764 1.16987 91.8812 1.16987 91.3453V88.6547C1.16987 88.1188 1.45577 87.6236 1.91987 87.3557L4.25 86.0104Z" fill="white" stroke="#665EC8"/>
<path opacity="0.9" d="M31.75 0.721688C31.9047 0.632371 32.0953 0.632371 32.25 0.721688L34.7141 2.14434C34.8688 2.23365 34.9641 2.39872 34.9641 2.57735V5.42265C34.9641 5.60128 34.8688 5.76635 34.7141 5.85566L32.25 7.27831C32.0953 7.36763 31.9047 7.36763 31.75 7.27831L29.2859 5.85566C29.1312 5.76635 29.0359 5.60128 29.0359 5.42265V2.57735C29.0359 2.39872 29.1312 2.23365 29.2859 2.14434L31.75 0.721688Z" stroke="#665EC8"/>
<path d="M162.211 33.5569L162.211 33.5569C162.147 33.5195 162.074 33.5 162 33.5C161.926 33.5 161.853 33.5195 161.789 33.5569L161.789 33.5569L158.713 35.3424C158.713 35.3424 158.713 35.3424 158.713 35.3424C158.649 35.3797 158.595 35.4336 158.557 35.4989L158.13 35.2535L158.557 35.4989C158.52 35.5642 158.5 35.6385 158.5 35.7142L162.211 33.5569ZM162.211 33.5569L165.287 35.3424C165.287 35.3424 165.287 35.3424 165.287 35.3424C165.351 35.3797 165.405 35.4336 165.443 35.4989C165.48 35.5642 165.5 35.6385 165.5 35.7143V39.2858C165.5 39.3615 165.48 39.4358 165.443 39.5011C165.405 39.5664 165.351 39.6203 165.287 39.6576L162.211 41.4431L162.211 41.4431M162.211 33.5569L162.211 41.4431M162.211 41.4431C162.147 41.4805 162.074 41.5 162 41.5C161.926 41.5 161.853 41.4805 161.789 41.4431L161.789 41.4431M162.211 41.4431L161.789 41.4431M161.789 41.4431L158.713 39.6576M161.789 41.4431L158.713 39.6576M158.713 39.6576C158.649 39.6203 158.595 39.5664 158.557 39.5011C158.52 39.4358 158.5 39.3615 158.5 39.2858C158.5 39.2857 158.5 39.2857 158.5 39.2857V35.7143L158.713 39.6576Z" stroke="#665EC8"/>
<path fill-rule="evenodd" clip-rule="evenodd" d="M55.7887 132.069L57.7113 133.061C57.7991 133.106 57.872 133.172 57.9226 133.25C57.9733 133.328 58 133.417 58 133.508V135.492C58 135.583 57.9733 135.672 57.9226 135.75C57.872 135.828 57.7991 135.894 57.7113 135.939L55.7887 136.931C55.7009 136.976 55.6013 137 55.5 137C55.3987 137 55.2991 136.976 55.2113 136.931L53.2887 135.939C53.2009 135.894 53.128 135.828 53.0774 135.75C53.0267 135.672 53 135.583 53 135.492V133.508C53 133.417 53.0267 133.328 53.0774 133.25C53.128 133.172 53.2009 133.106 53.2887 133.061L55.2113 132.069C55.2991 132.024 55.3987 132 55.5 132C55.6013 132 55.7009 132.024 55.7887 132.069Z" fill="#665EC8"/>
<rect x="30.1621" y="25.1006" width="109" height="79" rx="8.5" fill="white" stroke="#554CC2"/>
<rect x="29.6621" y="37.6006" width="110" height="1" fill="#554CC2"/>
<circle cx="116.162" cy="31.1006" r="1.5" fill="#554CC2"/>
<circle cx="122.162" cy="31.1006" r="1.5" fill="#554CC2"/>
<circle cx="128.162" cy="31.1006" r="1.5" fill="#554CC2"/>
<rect x="40.1621" y="49.1006" width="67" height="4" rx="2" stroke="#554CC2"/>
<rect x="40.1621" y="58.1006" width="50" height="4" rx="2" stroke="#554CC2"/>
<rect x="39.6621" y="70.6006" width="27" height="2" rx="1" fill="#554CC2"/>
<rect x="39.6621" y="77.6006" width="35" height="2" rx="1" fill="#554CC2"/>
<rect x="39.6621" y="85.6006" width="42" height="2" rx="1" fill="#554CC2"/>
<rect x="85.1621" y="65.1006" width="71" height="52" rx="7.5" fill="white" stroke="#554CC2"/>
<rect x="84.6621" y="73.6006" width="72" height="1" fill="#554CC2"/>
<circle cx="141.662" cy="69.6006" r="1" fill="#554CC2"/>
<circle cx="145.589" cy="69.6006" r="1" fill="#554CC2"/>
<circle cx="149.517" cy="69.6006" r="1" fill="#554CC2"/>
<g filter="url(#filter0_d)">
<path d="M137.142 84.7959L137.142 84.7959L146.37 89.9541C146.716 90.1475 147.002 90.4245 147.199 90.7558C147.397 91.0869 147.5 91.4612 147.5 91.8412V102.159C147.5 102.539 147.397 102.913 147.199 103.244C147.002 103.575 146.716 103.853 146.37 104.046L137.142 109.204L137.386 109.641L137.142 109.204C136.796 109.398 136.402 109.5 136 109.5C135.598 109.5 135.204 109.398 134.858 109.204L134.614 109.641L134.858 109.204L125.63 104.046C125.284 103.853 124.998 103.575 124.801 103.244C124.603 102.913 124.5 102.539 124.5 102.159V91.8412C124.5 91.8412 124.5 91.8412 124.5 91.8412C124.5 91.4612 124.603 91.0869 124.801 90.7558C124.998 90.4245 125.284 90.1475 125.63 89.9541C125.63 89.9541 125.63 89.9541 125.63 89.9541L134.858 84.7959L134.858 84.7959C135.204 84.6024 135.598 84.5 136 84.5C136.402 84.5 136.796 84.6024 137.142 84.7959Z" fill="white" stroke="#554CC2"/>
<path opacity="0.9" d="M137.116 98.8379C137.116 99.0677 137.065 99.2953 136.967 99.5076C136.869 99.7199 136.724 99.9128 136.543 100.075C136.361 100.238 136.145 100.367 135.907 100.455C135.67 100.543 135.415 100.588 135.158 100.588C134.901 100.588 134.646 100.543 134.409 100.455C134.171 100.367 133.955 100.238 133.773 100.075C133.592 99.9128 133.447 99.7199 133.349 99.5076C133.251 99.2953 133.2 99.0677 133.2 98.8379H133.838C133.838 98.9928 133.872 99.1462 133.939 99.2893C134.005 99.4325 134.102 99.5625 134.225 99.6721C134.347 99.7816 134.493 99.8685 134.653 99.9278C134.813 99.9871 134.985 100.018 135.158 100.018C135.331 100.018 135.503 99.9871 135.663 99.9278C135.823 99.8685 135.969 99.7816 136.091 99.6721C136.214 99.5625 136.311 99.4325 136.377 99.2893C136.444 99.1462 136.478 98.9928 136.478 98.8379H137.116Z" fill="#554CC2"/>
<ellipse opacity="0.9" cx="138.491" cy="95.4057" rx="1.12" ry="1.4" transform="rotate(1.15797 138.491 95.4057)" fill="#554CC2"/>
<ellipse opacity="0.9" cx="131.755" cy="95.4057" rx="1.12" ry="1.4" transform="rotate(1.15797 131.755 95.4057)" fill="#554CC2"/>
</g>
<path d="M108 81L104 93" stroke="#554CC2" stroke-linecap="round"/>
<path d="M110 83L114 86.5538L110 90" stroke="#554CC2" stroke-linecap="round" stroke-linejoin="round"/>
<path d="M102 83L98 86.5L102 90" stroke="#554CC2" stroke-linecap="round" stroke-linejoin="round"/>
<defs>
<filter id="filter0_d" x="98" y="60" width="76" height="76" filterUnits="userSpaceOnUse" color-interpolation-filters="sRGB">
<feFlood flood-opacity="0" result="BackgroundImageFix"/>
<feColorMatrix in="SourceAlpha" type="matrix" values="0 0 0 0 0 0 0 0 0 0 0 0 0 0 0 0 0 0 127 0"/>
<feOffset/>
<feGaussianBlur stdDeviation="12"/>
<feColorMatrix type="matrix" values="0 0 0 0 0.2 0 0 0 0 0.180392 0 0 0 0 0.329412 0 0 0 0.06 0"/>
<feBlend mode="normal" in2="BackgroundImageFix" result="effect1_dropShadow"/>
<feBlend mode="normal" in="SourceGraphic" in2="effect1_dropShadow" result="shape"/>
</filter>
</defs>
</svg>
