<svg width="110" height="116" viewBox="0 0 110 116" fill="none" xmlns="http://www.w3.org/2000/svg">
<g filter="url(#filter0_d)">
<path fill-rule="evenodd" clip-rule="evenodd" d="M58.4994 25.0213L81.8094 38.4788C82.8736 39.0932 83.7572 39.9768 84.3716 41.0409C84.986 42.105 85.3094 43.3121 85.3094 44.5408V71.4593C85.3094 72.688 84.986 73.8951 84.3716 74.9592C83.7572 76.0233 82.8736 76.907 81.8094 77.5213L58.4994 90.9788C57.4353 91.5932 56.2282 91.9166 54.9994 91.9166C53.7707 91.9166 52.5636 91.5932 51.4994 90.9788L28.1895 77.5213C27.1253 76.907 26.2417 76.0233 25.6273 74.9592C25.0129 73.8951 24.6895 72.688 24.6895 71.4593V44.5408C24.6895 43.3121 25.0129 42.105 25.6273 41.0409C26.2417 39.9768 27.1253 39.0932 28.1895 38.4788L51.4994 25.0213C52.5636 24.4069 53.7707 24.0835 54.9994 24.0835C56.2282 24.0835 57.4353 24.4069 58.4994 25.0213Z" fill="#31BAA4"/>
<path d="M49.5089 68.5C47.5335 68.5023 45.6189 67.8173 44.0932 66.5626C42.5676 65.3078 41.526 63.5614 41.1469 61.6227C40.7679 59.6841 41.075 57.674 42.0158 55.937C42.9565 54.2 44.4721 52.8444 46.3029 52.1025L41.0004 47.5H47.0676L56.2359 55.4573H49.5089C48.3072 55.4586 47.1551 55.9366 46.3054 56.7863C45.4557 57.636 44.9777 58.7881 44.9764 59.9898C44.9777 61.1914 45.4557 62.3435 46.3054 63.1932C47.1551 64.0429 48.3072 64.5209 49.5089 64.5223H51.6526L56.2359 68.5H49.5089ZM68.1866 68.5H62.1176L52.9511 60.5428H59.6764C60.878 60.5414 62.0301 60.0634 62.8798 59.2137C63.7295 58.364 64.2075 57.2119 64.2089 56.0103C64.2079 54.8084 63.7301 53.6561 62.8803 52.8063C62.0305 51.9565 60.8782 51.4787 59.6764 51.4778H57.5361L52.9511 47.5H59.6781C61.6527 47.4987 63.5663 48.1841 65.091 49.4388C66.6157 50.6934 67.6567 52.4392 68.0357 54.3771C68.4146 56.315 68.1079 58.3243 67.168 60.0609C66.2282 61.7975 64.7137 63.1532 62.8841 63.8958L68.1866 68.5Z" fill="white"/>
</g>
<defs>
<filter id="filter0_d" x="-4" y="-1" width="118" height="118" filterUnits="userSpaceOnUse" color-interpolation-filters="sRGB">
<feFlood flood-opacity="0" result="BackgroundImageFix"/>
<feColorMatrix in="SourceAlpha" type="matrix" values="0 0 0 0 0 0 0 0 0 0 0 0 0 0 0 0 0 0 127 0"/>
<feOffset/>
<feGaussianBlur stdDeviation="12"/>
<feColorMatrix type="matrix" values="0 0 0 0 0.2 0 0 0 0 0.180392 0 0 0 0 0.329412 0 0 0 0.06 0"/>
<feBlend mode="normal" in2="BackgroundImageFix" result="effect1_dropShadow"/>
<feBlend mode="normal" in="SourceGraphic" in2="effect1_dropShadow" result="shape"/>
</filter>
</defs>
</svg>
