<svg width="100" height="104" viewBox="0 0 100 104" fill="none" xmlns="http://www.w3.org/2000/svg">
<g filter="url(#filter0_d)">
<path fill-rule="evenodd" clip-rule="evenodd" d="M52.9 25.617L72.214 36.383C73.0957 36.8744 73.8278 37.5814 74.3369 38.4326C74.846 39.2839 75.114 40.2496 75.114 41.2326V62.7674C75.114 63.7503 74.846 64.716 74.3369 65.5673C73.8278 66.4186 73.0957 67.1255 72.214 67.617L52.9 78.383C52.0183 78.8745 51.0181 79.1332 50 79.1332C48.9819 79.1332 47.9817 78.8745 47.1 78.383L27.786 67.617C26.9043 67.1255 26.1721 66.4186 25.6631 65.5673C25.154 64.716 24.886 63.7503 24.886 62.7674V41.2326C24.886 40.2496 25.154 39.2839 25.6631 38.4326C26.1721 37.5814 26.9043 36.8744 27.786 36.383L47.1 25.617C47.9817 25.1255 48.9819 24.8667 50 24.8667C51.0181 24.8667 52.0183 25.1255 52.9 25.617Z" fill="#233F64"/>
<path d="M64.5 52C64.5 59.7322 58.0084 66 50 66C41.9917 66 35.5 59.7322 35.5 52C35.5 44.2678 41.9917 38 50 38C53.8456 38 57.5338 39.475 60.253 42.1005C62.9723 44.726 64.5 48.287 64.5 52ZM61.7769 52C61.7769 50.5068 61.4723 49.0282 60.8804 47.6486C60.2886 46.269 59.4211 45.0155 58.3275 43.9596C57.2339 42.9038 55.9357 42.0662 54.5068 41.4948C53.078 40.9233 51.5466 40.6292 50 40.6292C48.4534 40.6292 46.922 40.9233 45.4932 41.4948C44.0643 42.0662 42.7661 42.9038 41.6725 43.9596C40.5789 45.0155 39.7114 46.269 39.1196 47.6486C38.5277 49.0282 38.2231 50.5068 38.2231 52C38.2231 55.0157 39.4639 57.9079 41.6725 60.0404C43.8811 62.1728 46.8766 63.3708 50 63.3708C53.1234 63.3708 56.1189 62.1728 58.3275 60.0404C60.5361 57.9079 61.7769 55.0157 61.7769 52Z" fill="white"/>
<path fill-rule="evenodd" clip-rule="evenodd" d="M46.7786 58.9848C46.9077 58.6516 47.0295 58.3282 47.1585 57.9894L46.5147 58.051C46.4654 58.051 46.4567 58.0888 46.4364 58.121C46.3552 58.2708 46.2914 58.4304 46.2479 58.597C46.1537 58.9064 46.0696 58.982 45.7404 59.0058C45.2619 59.0324 44.7834 59.024 44.3064 58.9848C44.4166 58.6978 44.5195 58.4178 44.6297 58.1322C44.0787 58.107 43.5393 58.079 42.9985 58.0636C42.8723 58.0636 42.8694 58.023 42.9057 57.9264C43.2276 57.0444 43.6104 56.1778 43.9787 55.3084L46.2044 50.0626C46.3233 49.7784 46.3204 49.7756 46.6423 49.7728C47.4195 49.7728 48.1996 49.7448 48.9768 49.7728C49.0566 49.7728 49.1407 49.7728 49.2233 49.7882C49.4945 49.8162 49.5887 49.9464 49.5235 50.2082C49.4427 50.4796 49.3439 50.7456 49.2277 51.0048L47.4224 55.5618L47.3963 55.6318C47.6414 55.6458 47.8864 55.6374 48.1286 55.6038C50.6704 55.2916 52.3814 53.9042 53.3935 51.674C53.5864 51.24 53.6951 50.778 53.7154 50.3076C53.741 49.9435 53.631 49.5826 53.4053 49.29C53.1796 48.9973 52.8529 48.7922 52.4844 48.7116C52.1139 48.6281 51.7334 48.5937 51.3534 48.6094C50.0107 48.6094 48.6665 48.6304 47.3224 48.6094H42.7766C42.8404 48.4512 42.9216 48.2986 43.0144 48.1544C43.3015 47.6602 43.6017 47.1688 43.8786 46.6676C43.941 46.5365 44.0428 46.4265 44.1709 46.3521C44.2989 46.2777 44.4472 46.2422 44.5964 46.2504H49.1856C49.2329 46.256 49.2808 46.2446 49.3199 46.2182C49.359 46.1918 49.3866 46.1524 49.3973 46.1076C49.5394 45.7786 49.6786 45.4664 49.8135 45.1178C49.8323 45.0786 49.8367 45.0282 49.9077 45.0254H51.4056C51.5245 45.0254 51.5535 45.087 51.5477 45.1836C51.53 45.3381 51.4854 45.4886 51.4157 45.6288L51.2026 46.1384C51.1707 46.214 51.1794 46.2546 51.2794 46.2476H51.7405C51.7701 46.2514 51.8002 46.2443 51.8246 46.2277C51.8491 46.2111 51.8662 46.1862 51.8725 46.158C52.0073 45.808 52.1523 45.4608 52.2915 45.1122C52.2985 45.0798 52.318 45.0513 52.346 45.0323C52.374 45.0133 52.4084 45.0053 52.4423 45.01C52.8527 45.01 53.2616 44.9876 53.6705 45.01C53.7285 45.0128 53.785 45.0184 53.8416 45.0282C54.0417 45.0562 54.0634 45.087 54.0156 45.2802C53.9416 45.521 53.8517 45.7562 53.7473 45.9858C53.7227 46.046 53.7038 46.1076 53.6777 46.1636C53.6516 46.2196 53.6574 46.2938 53.7705 46.3064C54.7067 46.3659 55.6087 46.6692 56.3805 47.1842C57.207 47.7484 57.6507 48.7018 57.5376 49.6734C57.4465 50.6035 57.1546 51.5048 56.6807 52.3194C56.1729 53.3119 55.4927 54.213 54.6695 54.9836C53.7278 55.818 52.6358 56.479 51.4476 56.9338C50.7328 57.2138 49.9976 57.4406 49.2465 57.6128C49.2029 57.6201 49.1623 57.6391 49.1292 57.6675C49.0962 57.696 49.072 57.7328 49.0595 57.7738C48.9507 58.086 48.8304 58.3716 48.7144 58.6698C48.6187 58.919 48.5505 58.982 48.2765 58.982C47.7774 59 47.2778 59.0009 46.7786 58.9848Z" fill="#FEFEFE"/>
</g>
<defs>
<filter id="filter0_d" x="-3" y="0" width="106" height="104" filterUnits="userSpaceOnUse" color-interpolation-filters="sRGB">
<feFlood flood-opacity="0" result="BackgroundImageFix"/>
<feColorMatrix in="SourceAlpha" type="matrix" values="0 0 0 0 0 0 0 0 0 0 0 0 0 0 0 0 0 0 127 0"/>
<feOffset/>
<feGaussianBlur stdDeviation="12"/>
<feColorMatrix type="matrix" values="0 0 0 0 0.2 0 0 0 0 0.180392 0 0 0 0 0.329412 0 0 0 0.06 0"/>
<feBlend mode="normal" in2="BackgroundImageFix" result="effect1_dropShadow"/>
<feBlend mode="normal" in="SourceGraphic" in2="effect1_dropShadow" result="shape"/>
</filter>
</defs>
</svg>
