<svg width="110" height="117" viewBox="0 0 110 117" fill="none" xmlns="http://www.w3.org/2000/svg">
<g filter="url(#filter0_d)">
<path fill-rule="evenodd" clip-rule="evenodd" d="M58.4994 25.0503L81.8094 38.7001C82.8736 39.3232 83.7572 40.2195 84.3716 41.2988C84.986 42.3781 85.3094 43.6024 85.3094 44.8487V72.1517C85.3094 73.398 84.986 74.6223 84.3716 75.7016C83.7572 76.7809 82.8736 77.6772 81.8094 78.3003L58.4994 91.9501C57.4353 92.5733 56.2282 92.9013 54.9994 92.9013C53.7707 92.9013 52.5636 92.5733 51.4994 91.9501L28.1895 78.3003C27.1253 77.6772 26.2417 76.7809 25.6273 75.7016C25.0129 74.6223 24.6895 73.398 24.6895 72.1517V44.8487C24.6895 43.6024 25.0129 42.3781 25.6273 41.2988C26.2417 40.2195 27.1253 39.3232 28.1895 38.7001L51.4994 25.0503C52.5636 24.4272 53.7707 24.0991 54.9994 24.0991C56.2282 24.0991 57.4353 24.4272 58.4994 25.0503Z" fill="#393468"/>
<path d="M55.2146 43.5084L48.2986 52.9514L45.1311 68.5057L55.2234 74.4928L65.3086 68.5111L62.0361 52.9514L55.2146 43.5084ZM43.3706 69.2992L46.8356 52.2876L55.2234 40.8335L63.4974 52.2876L67.0761 69.3009L55.2234 76.3335L43.3706 69.3009V69.2992Z" fill="white"/>
<path d="M48.5889 52.5538L55.2127 71.5428L61.7472 52.5556L55.1672 43.5084L48.5889 52.552V52.5538ZM46.8354 52.2876L55.1654 40.8335L63.4972 52.2876L55.2232 76.3335L46.8354 52.2876Z" fill="white"/>
</g>
<defs>
<filter id="filter0_d" x="-4" y="-1" width="118" height="119" filterUnits="userSpaceOnUse" color-interpolation-filters="sRGB">
<feFlood flood-opacity="0" result="BackgroundImageFix"/>
<feColorMatrix in="SourceAlpha" type="matrix" values="0 0 0 0 0 0 0 0 0 0 0 0 0 0 0 0 0 0 127 0"/>
<feOffset/>
<feGaussianBlur stdDeviation="12"/>
<feColorMatrix type="matrix" values="0 0 0 0 0.2 0 0 0 0 0.180392 0 0 0 0 0.329412 0 0 0 0.06 0"/>
<feBlend mode="normal" in2="BackgroundImageFix" result="effect1_dropShadow"/>
<feBlend mode="normal" in="SourceGraphic" in2="effect1_dropShadow" result="shape"/>
</filter>
</defs>
</svg>
