<svg width="111" height="118" viewBox="0 0 111 118" fill="none" xmlns="http://www.w3.org/2000/svg">
<g filter="url(#filter0_d)">
<path d="M59.05 25.7498L82.835 39.3998C84.965 40.6248 86.385 43.0748 86.385 45.5248V72.6498C86.385 75.0998 84.965 77.5498 82.835 78.7748L59.05 92.2498C56.92 93.4748 54.08 93.4748 51.95 92.2498L27.9875 78.7748C25.8575 77.5498 24.4375 75.0998 24.4375 72.6498V45.3498C24.4375 42.8998 25.8575 40.4498 27.9875 39.2248L51.95 25.7498C54.08 24.5248 56.92 24.5248 59.05 25.7498Z" fill="#2D365A"/>
<path d="M55.7946 65.6888L44.7896 59.3888L55.7946 41.3638L66.7996 59.3888L55.7946 65.6888Z" fill="white"/>
<path d="M55.7946 76.714L44.7896 61.314L55.7946 67.789L66.7996 61.314L55.7946 76.714Z" fill="white"/>
</g>
<defs>
<filter id="filter0_d" x="-4" y="0" width="119" height="118" filterUnits="userSpaceOnUse" color-interpolation-filters="sRGB">
<feFlood flood-opacity="0" result="BackgroundImageFix"/>
<feColorMatrix in="SourceAlpha" type="matrix" values="0 0 0 0 0 0 0 0 0 0 0 0 0 0 0 0 0 0 127 0"/>
<feOffset/>
<feGaussianBlur stdDeviation="12"/>
<feColorMatrix type="matrix" values="0 0 0 0 0.2 0 0 0 0 0.180392 0 0 0 0 0.329412 0 0 0 0.06 0"/>
<feBlend mode="normal" in2="BackgroundImageFix" result="effect1_dropShadow"/>
<feBlend mode="normal" in="SourceGraphic" in2="effect1_dropShadow" result="shape"/>
</filter>
</defs>
</svg>
