<svg width="20" height="20" viewBox="0 0 20 20" fill="none" xmlns="http://www.w3.org/2000/svg">
<g clip-path="url(#clip0)">
<path d="M10.0004 20.0008C15.5235 20.0008 20.0008 15.5235 20.0008 10.0004C20.0008 4.47733 15.5235 0 10.0004 0C4.47733 0 0 4.47733 0 10.0004C0 15.5235 4.47733 20.0008 10.0004 20.0008Z" fill="#616161"/>
<path d="M10.0004 16.3641C6.48535 16.3641 3.63673 13.5155 3.63673 10.0004C3.63673 6.48535 6.48535 3.63673 10.0004 3.63673C11.7571 3.63673 13.3478 4.34909 14.5002 5.50062L17.0716 2.92921C15.2617 1.1193 12.7612 0 10.0004 0C4.47722 0 0 4.47721 0 10.0004C0 15.5236 4.47722 20.0008 10.0004 20.0008C12.762 20.0008 15.2617 18.8815 17.0724 17.0724L14.501 14.501C13.3478 15.6517 11.7571 16.3641 10.0004 16.3641Z" fill="#9E9E9E"/>
<path d="M16.3639 10.0001H13.1817C13.1817 8.24339 11.757 6.81787 9.99943 6.81787C8.2419 6.81787 6.81799 8.24259 6.81799 10.0001C6.81799 10.8559 7.15644 11.6319 7.70683 12.2049L7.70441 12.2073L11.6441 16.147L11.6449 16.1478C14.3622 15.4226 16.3639 12.9454 16.3639 10.0001Z" fill="#424242"/>
<path d="M20 10.0005H16.3633C16.3633 12.9458 14.3607 15.4229 11.645 16.1482L14.4534 18.9565C17.7413 17.3183 20 13.9233 20 10.0005Z" fill="#616161"/>
<path d="M10.0004 19.8859C4.49655 19.8859 0.0322334 15.4394 0.000805837 9.94287C0.000805837 9.96221 0 9.98074 0 10.0001C0 15.5232 4.47721 20.0004 10.0004 20.0004C15.5236 20.0004 20.0008 15.5232 20.0008 10.0001C20.0008 9.98074 20 9.96221 20 9.94287C19.9686 15.4394 15.5034 19.8859 10.0004 19.8859Z" fill="#212121" fill-opacity="0.1"/>
<path d="M11.6459 16.1482L11.7345 16.2368C14.4051 15.4826 16.364 13.028 16.364 10.1141V10.0005C16.364 12.9458 14.3615 15.4229 11.6459 16.1482Z" fill="white" fill-opacity="0.05"/>
<path d="M18.1824 9.09082H10C9.49801 9.09082 9.09106 9.49775 9.09106 9.99977C9.09106 10.5018 9.49801 10.9087 10 10.9087H18.1816C18.6836 10.9087 19.0905 10.5018 19.0905 9.99977C19.0913 9.49775 18.6844 9.09082 18.1824 9.09082Z" fill="#9E9E9E"/>
<path opacity="0.5" d="M18.1824 9.09082H10C9.49801 9.09082 9.09106 9.49775 9.09106 9.99977C9.09106 10.5018 9.49801 10.9087 10 10.9087H18.1816C18.6836 10.9087 19.0905 10.5018 19.0905 9.99977C19.0913 9.49775 18.6844 9.09082 18.1824 9.09082Z" fill="#BDBDBD"/>
<path d="M1.81797 10.6818C2.19448 10.6818 2.4997 10.3766 2.4997 10.0001C2.4997 9.62358 2.19448 9.31836 1.81797 9.31836C1.44145 9.31836 1.13623 9.62358 1.13623 10.0001C1.13623 10.3766 1.44145 10.6818 1.81797 10.6818Z" fill="#BDBDBD"/>
<path d="M10.0006 2.4997C10.3771 2.4997 10.6823 2.19448 10.6823 1.81797C10.6823 1.44145 10.3771 1.13623 10.0006 1.13623C9.62407 1.13623 9.31885 1.44145 9.31885 1.81797C9.31885 2.19448 9.62407 2.4997 10.0006 2.4997Z" fill="#BDBDBD"/>
<path d="M10.0006 18.8635C10.3771 18.8635 10.6823 18.5582 10.6823 18.1817C10.6823 17.8052 10.3771 17.5 10.0006 17.5C9.62407 17.5 9.31885 17.8052 9.31885 18.1817C9.31885 18.5582 9.62407 18.8635 10.0006 18.8635Z" fill="#BDBDBD"/>
<path d="M4.20495 4.89619C4.58147 4.89619 4.8867 4.59096 4.8867 4.21445C4.8867 3.83794 4.58147 3.53271 4.20495 3.53271C3.82842 3.53271 3.52319 3.83794 3.52319 4.21445C3.52319 4.59096 3.82842 4.89619 4.20495 4.89619Z" fill="#BDBDBD"/>
<path d="M4.20495 16.4781C4.58147 16.4781 4.8867 16.1729 4.8867 15.7964C4.8867 15.4199 4.58147 15.1147 4.20495 15.1147C3.82842 15.1147 3.52319 15.4199 3.52319 15.7964C3.52319 16.1729 3.82842 16.4781 4.20495 16.4781Z" fill="#BDBDBD"/>
<path d="M15.7959 16.4781C16.1724 16.4781 16.4776 16.1729 16.4776 15.7964C16.4776 15.4199 16.1724 15.1147 15.7959 15.1147C15.4194 15.1147 15.1141 15.4199 15.1141 15.7964C15.1141 16.1729 15.4194 16.4781 15.7959 16.4781Z" fill="#757575"/>
<path d="M10.0004 9.20492H18.182C18.6647 9.20492 19.0596 9.58199 19.0878 10.0574C19.0886 10.038 19.091 10.0195 19.091 10.0002C19.091 9.4982 18.6841 9.09131 18.182 9.09131H10.0004C9.49838 9.09131 9.09143 9.4982 9.09143 10.0002C9.09143 10.0195 9.09224 10.038 9.09465 10.0574C9.12286 9.58199 9.51691 9.20492 10.0004 9.20492Z" fill="white" fill-opacity="0.2"/>
<path d="M19.0878 10.0566C19.058 10.5313 18.6639 10.9092 18.182 10.9092H10.0004C9.51772 10.9092 9.12286 10.5321 9.09465 10.0566C9.09224 10.076 9.09143 10.0945 9.09143 10.113C9.09143 10.6151 9.49838 11.022 10.0004 11.022H18.182C18.6841 11.022 19.091 10.6151 19.091 10.113C19.091 10.0945 19.0902 10.076 19.0878 10.0566Z" fill="#212121" fill-opacity="0.2"/>
<path d="M10.0004 3.75066C11.7571 3.75066 13.3478 4.46302 14.5001 5.61456L17.1272 2.98593C17.1078 2.96659 17.0893 2.94725 17.0707 2.92871L14.5001 5.50013C13.3478 4.34859 11.7571 3.63623 10.0004 3.63623C6.48534 3.63623 3.63672 6.48486 3.63672 9.99991C3.63672 10.0192 3.63752 10.0378 3.63752 10.0571C3.66815 6.56866 6.50468 3.75066 10.0004 3.75066Z" fill="#212121" fill-opacity="0.1"/>
<path d="M10.0004 20.0008C15.5235 20.0008 20.0008 15.5235 20.0008 10.0004C20.0008 4.47733 15.5235 0 10.0004 0C4.47733 0 0 4.47733 0 10.0004C0 15.5235 4.47733 20.0008 10.0004 20.0008Z" fill="url(#paint0_radial)"/>
</g>
<defs>
<radialGradient id="paint0_radial" cx="0" cy="0" r="1" gradientUnits="userSpaceOnUse" gradientTransform="translate(2.93268 2.90991) scale(19.9663)">
<stop stop-color="white" stop-opacity="0.1"/>
<stop offset="1" stop-color="white" stop-opacity="0"/>
</radialGradient>
<clipPath id="clip0">
<rect width="20" height="20" fill="white"/>
</clipPath>
</defs>
</svg>
