<svg width="98" height="104" viewBox="0 0 98 104" fill="none" xmlns="http://www.w3.org/2000/svg">
<g filter="url(#filter0_d)">
<path fill-rule="evenodd" clip-rule="evenodd" d="M51.8 25.617L70.448 36.383C71.2992 36.8744 72.0062 37.5814 72.4977 38.4326C72.9892 39.2839 73.2479 40.2496 73.248 41.2326V62.7674C73.2479 63.7503 72.9892 64.716 72.4977 65.5673C72.0062 66.4186 71.2992 67.1255 70.448 67.617L51.8 78.383C50.9486 78.8745 49.983 79.1332 49 79.1332C48.0169 79.1332 47.0513 78.8745 46.2 78.383L27.552 67.617C26.7007 67.1255 25.9937 66.4186 25.5022 65.5673C25.0107 64.716 24.752 63.7503 24.752 62.7674V41.2326C24.752 40.2496 25.0107 39.2839 25.5022 38.4326C25.9937 37.5814 26.7007 36.8744 27.552 36.383L46.2 25.617C47.0513 25.1255 48.0169 24.8667 49 24.8667C49.983 24.8667 50.9486 25.1255 51.8 25.617Z" fill="#777777"/>
<path fill-rule="evenodd" clip-rule="evenodd" d="M49.3167 52.4313L47.3287 59.1289H57.9547C58.2767 59.1289 58.5091 59.3599 58.5091 59.6833V59.8219L57.5851 63.0097C57.5431 63.1596 57.452 63.2911 57.3263 63.383C57.2006 63.4749 57.0477 63.5219 56.8921 63.5165H40.6325L43.3569 54.2331L40.3091 55.1571L41.0021 53.0319L44.0499 52.1079L47.8845 39.0809C47.9262 38.9307 48.0172 38.7989 48.1429 38.7067C48.2686 38.6145 48.4217 38.5673 48.5775 38.5727H52.6879C53.0113 38.5727 53.2423 38.8037 53.2423 39.1271V39.2671L50.0083 50.2599L53.0575 49.3359L52.4107 51.5535L49.3167 52.4313Z" fill="white"/>
</g>
<defs>
<filter id="filter0_d" x="-3" y="0" width="104" height="104" filterUnits="userSpaceOnUse" color-interpolation-filters="sRGB">
<feFlood flood-opacity="0" result="BackgroundImageFix"/>
<feColorMatrix in="SourceAlpha" type="matrix" values="0 0 0 0 0 0 0 0 0 0 0 0 0 0 0 0 0 0 127 0"/>
<feOffset/>
<feGaussianBlur stdDeviation="12"/>
<feColorMatrix type="matrix" values="0 0 0 0 0.2 0 0 0 0 0.180392 0 0 0 0 0.329412 0 0 0 0.06 0"/>
<feBlend mode="normal" in2="BackgroundImageFix" result="effect1_dropShadow"/>
<feBlend mode="normal" in="SourceGraphic" in2="effect1_dropShadow" result="shape"/>
</filter>
</defs>
</svg>
