<svg width="163" height="126" viewBox="0 0 163 126" fill="none" xmlns="http://www.w3.org/2000/svg">
<circle cx="80" cy="63" r="54" fill="#FAF7FE"/>
<g filter="url(#filter0_d)">
<path d="M110.763 30.2374L134.218 45.5708C135.215 46.2226 136.025 47.1276 136.565 48.1952C137.105 49.2629 137.356 50.4553 137.293 51.6527L135.82 79.7893C135.757 80.9867 135.382 82.1464 134.734 83.1518C134.086 84.1572 133.186 84.9727 132.126 85.5168L107.198 98.3164L107.426 98.7612L107.198 98.3164C106.138 98.8605 104.955 99.114 103.769 99.0519C102.582 98.9897 101.432 98.614 100.435 97.9622L100.161 98.3807L100.435 97.9622L76.9795 82.6288C75.9825 81.977 75.1732 81.072 74.6333 80.0043C74.0933 78.9367 73.842 77.7442 73.9046 76.5469L75.3781 48.4102C75.4409 47.2129 75.8154 46.0532 76.4639 45.0478C77.1124 44.0424 78.0118 43.2269 79.0715 42.6828C79.0715 42.6828 79.0715 42.6828 79.0715 42.6828L104 29.8832L103.772 29.4384L104 29.8832C105.06 29.3391 106.242 29.0855 107.429 29.1477C108.616 29.2098 109.766 29.5856 110.763 30.2373L111.037 29.8188L110.763 30.2374Z" fill="white" stroke="#554CC2"/>
<path d="M112.001 77.9995C110.821 68.5274 98.8669 67.482 96.0614 76.6056L112.001 77.9995Z" fill="#F8F5FC" stroke="#756ECD" stroke-width="1.2"/>
<circle opacity="0.9" cx="117" cy="58.9994" r="3" fill="#665EC8"/>
<circle opacity="0.9" cx="94.9998" cy="57.0004" r="3" fill="#665EC8"/>
</g>
<g opacity="0.8">
<rect width="9.52728" height="1.78636" rx="0.893182" transform="matrix(0.707109 -0.707104 0.707109 0.707104 19 36.7368)" fill="#665EC8"/>
<rect width="9.52728" height="1.78636" rx="0.893182" transform="matrix(-0.707109 -0.707104 0.707109 -0.707104 25.7368 38)" fill="#665EC8"/>
</g>
<rect width="9.52728" height="1.78636" rx="0.893182" transform="matrix(0.707109 -0.707104 0.707109 0.707104 111 6.73682)" fill="#665EC8"/>
<rect width="9.52728" height="1.78636" rx="0.893182" transform="matrix(-0.707109 -0.707104 0.707109 -0.707104 117.737 8)" fill="#665EC8"/>
<g opacity="0.9">
<rect width="14.2909" height="2.67955" rx="1.33977" transform="matrix(0.707109 -0.707104 0.707109 0.707104 68 121.105)" fill="#665EC8"/>
<rect width="14.2909" height="2.67955" rx="1.33977" transform="matrix(-0.707109 -0.707104 0.707109 -0.707104 78.1053 123)" fill="#665EC8"/>
</g>
<path d="M8.77896 91.1171C7.99928 91.2687 7.28335 91.2022 6.63115 90.9178C5.98145 90.6462 5.40151 90.2217 4.89136 89.6443C4.3915 89.0518 3.96123 88.3395 3.60056 87.5076C3.25268 86.6733 2.98556 85.7768 2.79923 84.8182C2.62531 83.9234 2.54477 82.9973 2.55762 82.0398C2.58324 81.0797 2.7285 80.1893 2.99341 79.3685C3.25833 78.5476 3.65797 77.8399 4.19234 77.2452C4.72671 76.6506 5.42847 76.2688 6.29762 76.0998C7.14121 75.9358 7.88892 76.0293 8.54075 76.3801C9.20288 76.7156 9.77091 77.2154 10.2448 77.8794C10.7291 78.528 11.1285 79.2861 11.443 80.1535C11.7703 81.0184 12.0209 81.8982 12.1948 82.7929C12.3886 83.7898 12.4702 84.7556 12.4396 85.69C12.4193 86.6092 12.2705 87.4473 11.9931 88.2042C11.7286 88.9587 11.3281 89.5936 10.7916 90.1091C10.2678 90.6221 9.59698 90.9581 8.77896 91.1171ZM6.92951 80.3742C6.68666 80.4214 6.49439 80.5583 6.35272 80.7848C6.22383 81.0088 6.13292 81.2917 6.08 81.6336C6.02459 81.9628 6.00983 82.3304 6.03572 82.7366C6.05913 83.13 6.10935 83.5248 6.18637 83.921C6.27332 84.3684 6.38584 84.8107 6.52393 85.2482C6.67479 85.6831 6.84253 86.0683 7.02713 86.4038C7.21173 86.7394 7.40822 86.9996 7.61662 87.1846C7.8378 87.3671 8.06981 87.4348 8.31267 87.3876C8.59386 87.3329 8.79021 87.1488 8.90171 86.8353C9.01321 86.5218 9.07519 86.1583 9.08764 85.7447C9.11288 85.3286 9.09728 84.9071 9.04086 84.4804C8.99721 84.0511 8.94806 83.6959 8.8934 83.4147C8.82632 83.0696 8.72995 82.7103 8.60429 82.3368C8.49141 81.9608 8.35279 81.623 8.18842 81.3233C8.02157 81.0108 7.83395 80.7621 7.62555 80.5771C7.41715 80.3922 7.18514 80.3245 6.92951 80.3742ZM19.1164 89.0281C18.4645 89.1548 17.8622 89.0929 17.3094 88.8422C16.7566 88.5915 16.2619 88.23 15.8252 87.7578C15.3886 87.2855 15.0238 86.7396 14.7309 86.1201C14.4356 85.4877 14.2258 84.852 14.1016 84.2129C13.9699 83.5355 13.9176 82.8228 13.9446 82.0747C13.9691 81.3139 14.0968 80.6059 14.3276 79.9509C14.556 79.2831 14.9025 78.7116 15.3673 78.2366C15.8296 77.7488 16.4314 77.4329 17.1727 77.2888C17.8885 77.1497 18.5341 77.2298 19.1096 77.5291C19.6954 77.8132 20.1989 78.2194 20.6199 78.7477C21.0385 79.2632 21.3787 79.8537 21.6407 80.519C21.9027 81.1844 22.0741 81.8276 22.155 82.4485C22.2484 83.1334 22.2727 83.8384 22.2279 84.5633C22.1959 85.2858 22.0671 85.9542 21.8416 86.5684C21.6162 87.1826 21.2813 87.712 20.8371 88.1564C20.393 88.6009 19.8194 88.8915 19.1164 89.0281ZM17.6236 80.3249C17.4319 80.3622 17.2792 80.498 17.1656 80.7323C17.0647 80.9642 16.9918 81.237 16.9467 81.5509C16.9143 81.8622 16.9049 82.189 16.9184 82.5313C16.9294 82.8608 16.9585 83.1469 17.0057 83.3898C17.0653 83.6965 17.1554 84.0239 17.2761 84.3718C17.4096 84.7173 17.5573 85.0335 17.7192 85.3204C17.8786 85.5945 18.0484 85.8201 18.2288 85.9973C18.4194 86.1592 18.6106 86.2215 18.8023 86.1842C19.0069 86.1445 19.1608 86.0151 19.2641 85.796C19.3802 85.5745 19.4544 85.308 19.4868 84.9967C19.5191 84.6853 19.5209 84.3533 19.4921 84.0008C19.4609 83.6355 19.4155 83.2994 19.3559 82.9926C19.3012 82.7114 19.216 82.4097 19.1003 82.0873C18.9821 81.7521 18.8433 81.4475 18.6839 81.1734C18.5373 80.8968 18.3687 80.6775 18.178 80.5156C18.0001 80.3512 17.8153 80.2877 17.6236 80.3249ZM28.6826 87.1686C28.0308 87.2954 27.4285 87.2334 26.8757 86.9827C26.3229 86.732 25.8282 86.3705 25.3915 85.8983C24.9548 85.4261 24.5901 84.8802 24.2972 84.2606C24.0018 83.6282 23.792 82.9925 23.6678 82.3535C23.5361 81.676 23.4838 80.9633 23.5108 80.2152C23.5354 79.4544 23.6631 78.7464 23.8939 78.0914C24.1222 77.4236 24.4688 76.8522 24.9336 76.3771C25.3958 75.8893 25.9977 75.5734 26.739 75.4293C27.4548 75.2902 28.1004 75.3703 28.6759 75.6696C29.2617 75.9537 29.7651 76.3599 30.1862 76.8882C30.6047 77.4037 30.945 77.9942 31.207 78.6595C31.469 79.3249 31.6404 79.9681 31.7213 80.589C31.8146 81.2739 31.8389 81.9789 31.7941 82.7039C31.7621 83.4264 31.6334 84.0947 31.4079 84.7089C31.1824 85.3231 30.8476 85.8525 30.4034 86.2969C29.9592 86.7414 29.3856 87.032 28.6826 87.1686ZM27.1899 78.4654C26.9982 78.5027 26.8455 78.6385 26.7319 78.8728C26.631 79.1047 26.558 79.3775 26.5129 79.6914C26.4806 80.0027 26.4712 80.3295 26.4846 80.6718C26.4956 81.0013 26.5247 81.2874 26.5719 81.5303C26.6316 81.8371 26.7217 82.1644 26.8424 82.5124C26.9759 82.8578 27.1236 83.174 27.2854 83.4609C27.4448 83.735 27.6147 83.9606 27.7951 84.1378C27.9857 84.2997 28.1769 84.362 28.3686 84.3248C28.5731 84.285 28.727 84.1556 28.8304 83.9365C28.9465 83.715 29.0207 83.4486 29.053 83.1372C29.0854 82.8258 29.0871 82.4939 29.0584 82.1413C29.0272 81.776 28.9818 81.4399 28.9221 81.1332C28.8675 80.852 28.7823 80.5502 28.6666 80.2278C28.5484 79.8926 28.4096 79.588 28.2502 79.3139C28.1035 79.0373 27.9349 78.8181 27.7443 78.6561C27.5664 78.4917 27.3816 78.4282 27.1899 78.4654ZM42.1685 78.041C42.2778 78.6034 42.3344 79.2357 42.3382 79.938C42.3524 80.625 42.2684 81.2847 42.0862 81.917C41.9168 82.5468 41.6329 83.0994 41.2346 83.5748C40.8489 84.0477 40.3047 84.3524 39.6017 84.4891C39.4227 84.5239 39.2349 84.5471 39.0382 84.5588C38.8415 84.5705 38.6475 84.5618 38.4561 84.5327C38.2775 84.5011 38.108 84.4478 37.9475 84.3729C37.7846 84.2852 37.6474 84.1593 37.5359 83.9953L37.9 86.7896C37.9444 87.0861 37.9999 87.4401 38.0666 87.8516C38.1461 88.2606 38.1708 88.6604 38.1406 89.0509C38.1231 89.439 38.0242 89.7832 37.8439 90.0835C37.6788 90.3942 37.3853 90.5905 36.9635 90.6725C36.7207 90.7197 36.4913 90.6316 36.2755 90.4083C36.0621 90.1977 35.867 89.9107 35.6902 89.5471C35.5262 89.1811 35.3727 88.7665 35.2296 88.3036C35.0866 87.8406 34.9664 87.393 34.8692 86.9609C34.7719 86.5289 34.6885 86.1339 34.6189 85.776C34.5494 85.4181 34.4985 85.1561 34.4662 84.9899C34.2997 84.1335 34.1281 83.2848 33.9513 82.4437C33.7721 81.5898 33.5992 80.7347 33.4328 79.8783C33.403 79.725 33.357 79.4885 33.2949 79.169C33.2303 78.8366 33.1735 78.4763 33.1245 78.0878C33.0756 77.6994 33.0369 77.2957 33.0085 76.8768C32.9929 76.4554 33.0103 76.0673 33.0608 75.7126C33.1087 75.3452 33.2023 75.0418 33.3415 74.8025C33.4782 74.5504 33.6744 74.3995 33.93 74.3499C34.0962 74.3176 34.2531 74.3401 34.4008 74.4175C34.5588 74.4797 34.6974 74.5787 34.8167 74.7147C34.9463 74.8354 35.0592 74.9727 35.1554 75.1264C35.2516 75.2801 35.3325 75.4236 35.3982 75.5567C35.7075 75.0324 36.0954 74.6054 36.5619 74.276C37.0412 73.9441 37.5749 73.7209 38.1628 73.6067C38.7763 73.4874 39.3084 73.5631 39.7589 73.8336C40.2222 74.1017 40.6122 74.4703 40.9289 74.9393C41.2583 75.4058 41.5249 75.9244 41.7287 76.495C41.9299 77.0527 42.0765 77.5681 42.1685 78.041ZM39.397 78.4206C39.3597 78.2288 39.3033 78.0408 39.2277 77.8566C39.1624 77.657 39.0688 77.4829 38.9471 77.3341C38.8356 77.1701 38.6932 77.0518 38.52 76.9794C38.3442 76.8942 38.1413 76.8739 37.9113 76.9186C37.6045 76.9783 37.2984 77.1439 36.9931 77.4155C36.698 77.6718 36.4923 77.9439 36.3758 78.2318C36.3318 78.3465 36.3257 78.5201 36.3577 78.7527C36.3896 78.9852 36.4167 79.159 36.4391 79.2741C36.4565 79.3635 36.4801 79.485 36.5099 79.6383C36.55 79.7765 36.5914 79.921 36.634 80.0719C36.6766 80.2227 36.7179 80.3673 36.758 80.5054C36.8109 80.641 36.864 80.7434 36.9173 80.8127C36.978 80.9202 37.0822 81.0127 37.2298 81.0901C37.3751 81.1548 37.5318 81.2105 37.7001 81.2574C37.8684 81.3043 38.0329 81.332 38.1938 81.3405C38.3674 81.3466 38.5117 81.3384 38.6267 81.316C38.8952 81.2639 39.0926 81.1194 39.219 80.8826C39.3454 80.6458 39.426 80.3781 39.4608 80.0795C39.5084 79.7784 39.5164 79.4784 39.4848 79.1795C39.4635 78.8652 39.4343 78.6123 39.397 78.4206ZM48.8017 71.7377C48.8737 72.1083 48.7993 72.408 48.5785 72.6366C48.3704 72.8627 48.1291 73.0887 47.8547 73.3145C47.5777 73.5275 47.3326 73.7675 47.1192 74.0345C46.9186 74.299 46.8605 74.6485 46.945 75.0831C46.9897 75.3131 47.0793 75.5013 47.2139 75.6476C47.3612 75.7914 47.5252 75.9187 47.7059 76.0295C47.8969 76.125 48.102 76.2244 48.321 76.3278C48.5401 76.4311 48.7437 76.5573 48.9318 76.7064C49.1328 76.8531 49.3092 77.0443 49.4612 77.28C49.6259 77.5133 49.7443 77.8153 49.8163 78.186C49.9207 78.7228 49.8832 79.2805 49.7039 79.8593C49.5348 80.4227 49.2728 80.9512 48.9177 81.4446C48.5729 81.9229 48.1557 82.3356 47.6661 82.6828C47.1765 83.03 46.6696 83.2545 46.1456 83.3564C45.9283 83.3986 45.7073 83.4217 45.4826 83.4255C45.2603 83.4422 45.051 83.4232 44.8547 83.3685C44.6711 83.3114 44.5069 83.2173 44.3621 83.0862C44.2147 82.9424 44.1162 82.7427 44.0665 82.4871C43.997 82.1292 44.0139 81.8407 44.1172 81.6217C44.218 81.3898 44.3659 81.1953 44.5608 81.038C44.7558 80.8808 44.9685 80.7466 45.1989 80.6354C45.4421 80.5218 45.6636 80.3992 45.8635 80.2675C46.0609 80.123 46.215 79.9604 46.3258 79.7797C46.4366 79.599 46.4647 79.368 46.41 79.0868C46.3578 78.8184 46.1958 78.5647 45.9238 78.3258C45.6622 78.0716 45.3725 77.8095 45.0547 77.5397C44.7345 77.257 44.4297 76.9515 44.1404 76.6231C43.8638 76.2922 43.6821 75.903 43.5951 75.4557C43.4883 74.9061 43.4988 74.3801 43.6266 73.8777C43.7648 73.3601 43.9857 72.8927 44.2892 72.4755C44.6056 72.0559 44.988 71.703 45.4364 71.4168C45.8824 71.1179 46.3738 70.9163 46.9106 70.8119C47.1151 70.7722 47.3169 70.7529 47.5161 70.7539C47.7281 70.7525 47.9207 70.788 48.0939 70.8605C48.2647 70.9201 48.411 71.0243 48.5328 71.1731C48.6648 71.3066 48.7545 71.4948 48.8017 71.7377ZM55.0047 80.5201C55.037 80.6863 55.0285 80.8471 54.9791 81.0026C54.9272 81.1453 54.8461 81.2738 54.7357 81.3882C54.638 81.5 54.5175 81.5964 54.3741 81.6773C54.2434 81.7558 54.1014 81.8099 53.948 81.8397C53.7563 81.877 53.5379 81.8796 53.293 81.8477C53.0632 81.826 52.8401 81.7699 52.6235 81.6793C52.4197 81.5863 52.2378 81.4691 52.0777 81.3278C51.9151 81.1737 51.8127 80.988 51.7704 80.7707C51.7033 80.4256 51.8006 80.1414 52.0623 79.9181C52.3215 79.682 52.6045 79.5342 52.9113 79.4746C53.103 79.4373 53.3073 79.4307 53.5242 79.4549C53.7539 79.4766 53.9707 79.5339 54.1745 79.6269C54.3886 79.7047 54.5705 79.8219 54.7203 79.9785C54.8677 80.1223 54.9624 80.3028 55.0047 80.5201ZM59.3369 79.678C59.3692 79.8442 59.3606 80.005 59.3113 80.1605C59.2594 80.3032 59.1783 80.4318 59.0679 80.5461C58.9702 80.6579 58.8497 80.7543 58.7063 80.8352C58.5756 80.9137 58.4336 80.9678 58.2802 80.9976C58.0885 81.0349 57.8701 81.0375 57.6252 81.0056C57.3954 80.9839 57.1723 80.9278 56.9557 80.8372C56.7519 80.7442 56.57 80.627 56.4099 80.4857C56.2473 80.3316 56.1449 80.1459 56.1026 79.9286C56.0355 79.5835 56.1328 79.2993 56.3945 79.076C56.6537 78.8399 56.9367 78.6921 57.2435 78.6325C57.4352 78.5952 57.6395 78.5886 57.8564 78.6128C58.0861 78.6345 58.3029 78.6918 58.5067 78.7849C58.7208 78.8626 58.9027 78.9798 59.0525 79.1364C59.1999 79.2802 59.2946 79.4607 59.3369 79.678ZM63.6691 78.8359C63.7014 79.0021 63.6928 79.1629 63.6435 79.3184C63.5916 79.4611 63.5105 79.5897 63.4001 79.704C63.3024 79.8158 63.1819 79.9122 63.0385 79.9931C62.9078 80.0716 62.7658 80.1257 62.6124 80.1555C62.4207 80.1928 62.2023 80.1955 61.9573 80.1635C61.7276 80.1418 61.5045 80.0857 61.2879 79.9952C61.0841 79.9021 60.9022 79.7849 60.7421 79.6436C60.5795 79.4895 60.4771 79.3038 60.4348 79.0866C60.3677 78.7414 60.465 78.4572 60.7267 78.2339C60.9859 77.9979 61.2689 77.85 61.5756 77.7904C61.7674 77.7531 61.9717 77.7465 62.1886 77.7707C62.4183 77.7924 62.6351 77.8497 62.8389 77.9428C63.053 78.0205 63.2349 78.1377 63.3847 78.2943C63.5321 78.4381 63.6268 78.6186 63.6691 78.8359Z" fill="#665EC8"/>
<defs>
<filter id="filter0_d" x="38.0015" y="-4.99854" width="135.054" height="135.054" filterUnits="userSpaceOnUse" color-interpolation-filters="sRGB">
<feFlood flood-opacity="0" result="BackgroundImageFix"/>
<feColorMatrix in="SourceAlpha" type="matrix" values="0 0 0 0 0 0 0 0 0 0 0 0 0 0 0 0 0 0 127 0"/>
<feOffset/>
<feGaussianBlur stdDeviation="12"/>
<feColorMatrix type="matrix" values="0 0 0 0 0.2 0 0 0 0 0.180392 0 0 0 0 0.329412 0 0 0 0.06 0"/>
<feBlend mode="normal" in2="BackgroundImageFix" result="effect1_dropShadow"/>
<feBlend mode="normal" in="SourceGraphic" in2="effect1_dropShadow" result="shape"/>
</filter>
</defs>
</svg>
