<svg width="111" height="116" viewBox="0 0 111 116" fill="none" xmlns="http://www.w3.org/2000/svg">
<g filter="url(#filter0_d)">
<path fill-rule="evenodd" clip-rule="evenodd" d="M59.0493 25.0213L82.6923 38.4788C83.7717 39.0932 84.6679 39.9768 85.2911 41.0409C85.9142 42.105 86.2423 43.3121 86.2423 44.5408V71.4593C86.2423 72.688 85.9142 73.8951 85.2911 74.9592C84.6679 76.0233 83.7717 76.907 82.6923 77.5213L59.0493 90.9788C57.97 91.5932 56.7457 91.9166 55.4993 91.9166C54.253 91.9166 53.0287 91.5932 51.9493 90.9788L28.3063 77.5213C27.227 76.907 26.3308 76.0233 25.7076 74.9592C25.0845 73.8951 24.7564 72.688 24.7563 71.4593V44.5408C24.7564 43.3121 25.0845 42.105 25.7076 41.0409C26.3308 39.9768 27.227 39.0932 28.3063 38.4788L51.9493 25.0213C53.0287 24.4069 54.253 24.0835 55.4993 24.0835C56.7457 24.0835 57.97 24.4069 59.0493 25.0213Z" fill="#EC5065"/>
<path d="M70.2049 52.2951C68.9091 51.4008 67.5246 50.4488 66.1703 49.5038C66.139 49.4799 66.1064 49.4577 66.0727 49.4373C65.9133 49.3099 65.7333 49.2099 65.5401 49.1416L65.526 49.1346C61.9032 48.2701 58.22 47.3846 54.6558 46.5288L44.9608 44.2031C44.8758 44.18 44.7906 44.1578 44.7052 44.1366C44.4141 44.0561 44.0768 43.9668 43.7183 44.0123C43.6195 44.0265 43.525 44.0618 43.4414 44.1156L43.3526 44.1891C43.2388 44.302 43.1515 44.4382 43.097 44.5881L43.074 44.6458V44.9871L43.0882 45.0378C45.133 50.6851 47.2292 56.4128 49.251 61.9551C50.8076 66.2216 52.4247 70.6438 54.0044 74.9838C54.1021 75.2778 54.3772 75.4703 54.7233 75.5001H54.7978C54.9481 75.5044 55.0967 75.469 55.2284 75.3976C55.3601 75.3262 55.4701 75.2214 55.5469 75.0941L61.4754 66.5681L65.8117 60.3381C66.4028 59.4911 66.9939 58.6336 67.5867 57.7848C68.5576 56.3831 69.5623 54.9358 70.5581 53.5271L70.6113 53.4518V53.3643C70.6326 53.1053 70.6397 52.5733 70.2049 52.2933V52.2951ZM63.2575 55.4013C61.8659 56.1171 60.4424 56.8538 59.0135 57.5853L61.5145 54.9428C62.5546 53.8368 63.6391 52.6923 64.7024 51.5706L64.7254 51.5478C64.8142 51.4306 64.9278 51.3203 65.0467 51.2013C65.1301 51.1208 65.2189 51.0386 65.3023 50.9423C65.8561 51.3186 66.417 51.7036 66.9566 52.0798C67.3471 52.3528 67.7429 52.6258 68.1459 52.8988C66.5004 53.7248 64.8532 54.5736 63.2575 55.4013ZM59.6791 55.0461C58.6088 56.1906 57.5012 57.3648 56.4007 58.5233C54.2671 55.9683 52.0874 53.3783 49.9752 50.8758L47.0944 47.4581L47.0872 47.4511C46.8689 47.2078 46.6613 46.9436 46.45 46.6916C46.3151 46.5218 46.1731 46.3591 46.0311 46.1893C46.9009 46.4116 47.776 46.6181 48.6368 46.8176C49.393 46.9926 50.1793 47.1781 50.9497 47.3706L63.9835 50.4926C62.5386 52.0133 61.0867 53.5551 59.6791 55.0461ZM55.9143 69.4311C55.996 68.6576 56.0865 67.8613 56.161 67.0773L56.3634 65.1961C56.4681 64.2143 56.58 63.1958 56.6705 62.1983L56.6918 62.0233C56.7663 61.3881 56.8426 60.7301 56.887 60.0738C56.9687 60.0283 57.0592 59.9863 57.1568 59.9478C57.2687 59.8953 57.3805 59.8516 57.4941 59.7851C59.2229 58.8926 60.9518 58.0001 62.6895 57.1128C64.4184 56.2273 66.1934 55.3121 67.9524 54.4038C66.356 56.6831 64.7662 58.9669 63.183 61.2551C61.8428 63.1801 60.4654 65.1663 59.0951 67.1228C58.5555 67.9051 57.9946 68.7013 57.4621 69.4696C56.864 70.3271 56.2498 71.2038 55.6516 72.0823C55.7262 71.1968 55.8167 70.3043 55.9143 69.4328V69.4311ZM45.4773 47.9306C45.3797 47.6663 45.275 47.3933 45.1844 47.1343C47.208 49.5406 49.2421 51.9608 51.2266 54.3093C52.2525 55.5273 53.2785 56.7366 54.3044 57.9616C54.5067 58.1908 54.7091 58.4341 54.9026 58.6703C55.1582 58.9731 55.412 59.2916 55.6889 59.5943C55.6002 60.3538 55.5238 61.1221 55.4404 61.8588C55.3889 62.3768 55.3375 62.8931 55.2771 63.4163V63.4251C55.254 63.7576 55.2097 64.0901 55.1724 64.4138L55.0002 65.8838L54.9931 65.9346C54.8582 67.4256 54.6931 68.9306 54.5352 70.3918C54.4695 70.9973 54.4091 71.6168 54.3399 72.2381C54.3044 72.1261 54.2583 72.0158 54.221 71.9126C54.107 71.6114 53.9975 71.3086 53.8926 71.0043L53.0903 68.8133C50.552 61.8518 48.0138 54.8991 45.4755 47.9306" fill="white"/>
</g>
<defs>
<filter id="filter0_d" x="-4" y="-1" width="119" height="118" filterUnits="userSpaceOnUse" color-interpolation-filters="sRGB">
<feFlood flood-opacity="0" result="BackgroundImageFix"/>
<feColorMatrix in="SourceAlpha" type="matrix" values="0 0 0 0 0 0 0 0 0 0 0 0 0 0 0 0 0 0 127 0"/>
<feOffset/>
<feGaussianBlur stdDeviation="12"/>
<feColorMatrix type="matrix" values="0 0 0 0 0.2 0 0 0 0 0.180392 0 0 0 0 0.329412 0 0 0 0.06 0"/>
<feBlend mode="normal" in2="BackgroundImageFix" result="effect1_dropShadow"/>
<feBlend mode="normal" in="SourceGraphic" in2="effect1_dropShadow" result="shape"/>
</filter>
</defs>
</svg>
