<svg width="109" height="116" viewBox="0 0 109 116" fill="none" xmlns="http://www.w3.org/2000/svg">
<g filter="url(#filter0_d)">
<path fill-rule="evenodd" clip-rule="evenodd" d="M57.9496 25.0213L80.9266 38.4788C81.9755 39.0932 82.8465 39.9768 83.4521 41.0409C84.0577 42.105 84.3765 43.3121 84.3766 44.5408V71.4593C84.3765 72.688 84.0577 73.8951 83.4521 74.9592C82.8465 76.0233 81.9755 76.907 80.9266 77.5213L57.9496 90.9788C56.9006 91.5932 55.7108 91.9166 54.4996 91.9166C53.2884 91.9166 52.0985 91.5932 51.0496 90.9788L28.0726 77.5213C27.0237 76.907 26.1526 76.0233 25.547 74.9592C24.9414 73.8951 24.6226 72.688 24.6226 71.4593V44.5408C24.6226 43.3121 24.9414 42.105 25.547 41.0409C26.1526 39.9768 27.0237 39.0932 28.0726 38.4788L51.0496 25.0213C52.0985 24.4069 53.2884 24.0835 54.4996 24.0835C55.7108 24.0835 56.9006 24.4069 57.9496 25.0213Z" fill="#53AE94"/>
<path d="M57.115 54.7207V51.5777H64.2047V46.7827H44.8968V51.5777H51.99V54.7207C46.2251 54.9885 41.8901 56.147 41.8901 57.5347C41.8901 58.9225 46.2268 60.081 51.99 60.3505V70.4287H57.1184V60.3487C62.8713 60.081 67.1959 58.9225 67.1959 57.5365C67.1959 56.1505 62.8713 54.9937 57.1184 54.7242L57.115 54.7207ZM57.1184 59.4965V59.493C56.9735 59.5035 56.2301 59.549 54.5741 59.549C53.251 59.549 52.3195 59.5105 51.9917 59.493V59.4965C46.8995 59.269 43.0976 58.3677 43.0976 57.2915C43.0976 56.2152 46.8995 55.3175 51.9917 55.0865V58.6005C52.3247 58.6232 53.2786 58.681 54.5965 58.681C56.1766 58.681 56.9718 58.6145 57.1184 58.6005V55.0882C62.2003 55.3175 65.9936 56.2187 65.9936 57.2915C65.9936 58.3625 62.1986 59.2637 57.1184 59.4947" fill="white"/>
</g>
<defs>
<filter id="filter0_d" x="-4" y="-1" width="117" height="118" filterUnits="userSpaceOnUse" color-interpolation-filters="sRGB">
<feFlood flood-opacity="0" result="BackgroundImageFix"/>
<feColorMatrix in="SourceAlpha" type="matrix" values="0 0 0 0 0 0 0 0 0 0 0 0 0 0 0 0 0 0 127 0"/>
<feOffset/>
<feGaussianBlur stdDeviation="12"/>
<feColorMatrix type="matrix" values="0 0 0 0 0.2 0 0 0 0 0.180392 0 0 0 0 0.329412 0 0 0 0.06 0"/>
<feBlend mode="normal" in2="BackgroundImageFix" result="effect1_dropShadow"/>
<feBlend mode="normal" in="SourceGraphic" in2="effect1_dropShadow" result="shape"/>
</filter>
</defs>
</svg>
