<svg width="106" height="113" viewBox="0 0 106 113" fill="none" xmlns="http://www.w3.org/2000/svg">
<g filter="url(#filter0_d)">
<path d="M56.2996 24.9347L78.2776 37.8155C79.2809 38.4035 80.1141 39.2493 80.6934 40.2678C81.2726 41.2863 81.5776 42.4416 81.5776 43.6177V69.3825C81.5776 70.5586 81.2726 71.714 80.6934 72.7325C80.1141 73.7509 79.2809 74.5967 78.2776 75.1847L56.2996 88.0655C55.2963 88.6535 54.1582 88.9631 52.9996 88.9631C51.8411 88.9631 50.703 88.6535 49.6996 88.0655L27.7216 75.1847C26.7183 74.5967 25.8852 73.7509 25.3059 72.7325C24.7266 71.714 24.4217 70.5586 24.4216 69.3825V43.6177C24.4217 42.4416 24.7266 41.2863 25.3059 40.2678C25.8852 39.2493 26.7183 38.4035 27.7216 37.8155L49.6996 24.9347C50.703 24.3467 51.8411 24.0371 52.9996 24.0371C54.1582 24.0371 55.2963 24.3467 56.2996 24.9347Z" fill="#696CD2"/>
<path d="M50.9168 71.9551L38.2151 45.6895C38.1688 45.5926 38.1474 45.4855 38.153 45.378C38.1585 45.2706 38.1908 45.1663 38.2469 45.0749C38.3029 44.9836 38.3808 44.9082 38.4734 44.8557C38.5659 44.8032 38.6701 44.7754 38.7761 44.7749H43.1766C43.4142 44.7749 43.6353 44.9106 43.7376 45.12L53.0156 64.1748C53.8406 65.8833 56.2347 65.8833 57.0614 64.1748L66.308 45.135C66.3613 45.0308 66.4418 44.9434 66.5408 44.8826C66.6397 44.8217 66.7533 44.7897 66.869 44.79H67.4168C67.7418 44.79 67.9481 45.135 67.7996 45.4198L54.9642 71.9551C54.1376 73.6636 51.7451 73.6636 50.9168 71.9551Z" fill="white"/>
<g opacity="0.1">
<path opacity="0.1" d="M50.9166 71.9539L43.7391 45.1338C43.6898 45.0324 43.614 44.9466 43.5201 44.8858C43.4261 44.825 43.3176 44.7914 43.2062 44.7887H38.7924C38.685 44.7864 38.5788 44.8121 38.484 44.8633C38.3892 44.9146 38.309 44.9898 38.251 45.0816C38.193 45.1734 38.1593 45.2788 38.1529 45.3876C38.1466 45.4965 38.168 45.6052 38.2149 45.7033L50.9199 71.9539H50.9166Z" fill="#757575"/>
<path opacity="0.1" d="M53.0128 64.1882L38.2123 45.6895C38.0341 45.254 38.2998 44.8201 38.7139 44.7749H43.1887C43.2988 44.7829 43.4052 44.8186 43.4983 44.8788C43.5914 44.9391 43.6681 45.022 43.7217 45.12L53.0112 64.1898L53.0128 64.1882Z" fill="#8C8989"/>
</g>
</g>
<defs>
<filter id="filter0_d" x="-4" y="-1" width="114" height="115" filterUnits="userSpaceOnUse" color-interpolation-filters="sRGB">
<feFlood flood-opacity="0" result="BackgroundImageFix"/>
<feColorMatrix in="SourceAlpha" type="matrix" values="0 0 0 0 0 0 0 0 0 0 0 0 0 0 0 0 0 0 127 0"/>
<feOffset/>
<feGaussianBlur stdDeviation="12"/>
<feColorMatrix type="matrix" values="0 0 0 0 0.2 0 0 0 0 0.180392 0 0 0 0 0.329412 0 0 0 0.06 0"/>
<feBlend mode="normal" in2="BackgroundImageFix" result="effect1_dropShadow"/>
<feBlend mode="normal" in="SourceGraphic" in2="effect1_dropShadow" result="shape"/>
</filter>
</defs>
</svg>
