<svg width="110" height="116" viewBox="0 0 110 116" fill="none" xmlns="http://www.w3.org/2000/svg">
<g filter="url(#filter0_d)">
<path fill-rule="evenodd" clip-rule="evenodd" d="M58.4994 25.0213L81.8094 38.4788C82.8736 39.0932 83.7572 39.9768 84.3716 41.0409C84.986 42.105 85.3094 43.3121 85.3094 44.5408V71.4593C85.3094 72.688 84.986 73.8951 84.3716 74.9592C83.7572 76.0233 82.8736 76.907 81.8094 77.5213L58.4994 90.9788C57.4353 91.5932 56.2282 91.9166 54.9994 91.9166C53.7707 91.9166 52.5636 91.5932 51.4994 90.9788L28.1895 77.5213C27.1253 76.907 26.2417 76.0233 25.6273 74.9592C25.0129 73.8951 24.6895 72.688 24.6895 71.4593V44.5408C24.6895 43.3121 25.0129 42.105 25.6273 41.0409C26.2417 39.9768 27.1253 39.0932 28.1895 38.4788L51.4994 25.0213C52.5636 24.4069 53.7707 24.0835 54.9994 24.0835C56.2282 24.0835 57.4353 24.4069 58.4994 25.0213Z" fill="#FE964C"/>
<path d="M55.006 42.25C52.5123 42.25 50.0542 42.8424 47.8342 43.9784C45.6142 45.1145 43.6959 46.7617 42.2372 48.7843C40.7785 50.8069 39.8211 53.1472 39.444 55.6123C39.0669 58.0773 39.2808 60.5968 40.068 62.963H44.7755V49.7173L55.006 59.9512L65.24 49.7173V62.9647H69.9475C70.7353 60.5981 70.9494 58.0782 70.5722 55.6126C70.1951 53.147 69.2375 50.8063 67.7783 48.7834C66.3192 46.7604 64.4003 45.1132 62.1797 43.9773C59.959 42.8413 57.5003 42.2493 55.006 42.25Z" fill="white"/>
<path d="M52.6537 62.3052L48.1877 57.8374V66.1727H41.5535C42.9577 68.4822 44.933 70.3911 47.2891 71.7155C49.6453 73.04 52.3028 73.7353 55.0057 73.7344C57.7085 73.736 60.3661 73.041 62.7221 71.7165C65.0781 70.3919 67.0529 68.4826 68.4562 66.1727H61.8237V57.8374L57.3577 62.3052L55.0057 64.6572L52.6555 62.3052H52.6537Z" fill="white"/>
</g>
<defs>
<filter id="filter0_d" x="-4" y="-1" width="118" height="118" filterUnits="userSpaceOnUse" color-interpolation-filters="sRGB">
<feFlood flood-opacity="0" result="BackgroundImageFix"/>
<feColorMatrix in="SourceAlpha" type="matrix" values="0 0 0 0 0 0 0 0 0 0 0 0 0 0 0 0 0 0 127 0"/>
<feOffset/>
<feGaussianBlur stdDeviation="12"/>
<feColorMatrix type="matrix" values="0 0 0 0 0.2 0 0 0 0 0.180392 0 0 0 0 0.329412 0 0 0 0.06 0"/>
<feBlend mode="normal" in2="BackgroundImageFix" result="effect1_dropShadow"/>
<feBlend mode="normal" in="SourceGraphic" in2="effect1_dropShadow" result="shape"/>
</filter>
</defs>
</svg>
