<svg width="111" height="116" viewBox="0 0 111 116" fill="none" xmlns="http://www.w3.org/2000/svg">
<g filter="url(#filter0_d)">
<path fill-rule="evenodd" clip-rule="evenodd" d="M59.0496 25.0213L82.6926 38.4788C83.7719 39.0932 84.6682 39.9768 85.2913 41.0409C85.9145 42.105 86.2426 43.3121 86.2426 44.5408V71.4593C86.2426 72.688 85.9145 73.8951 85.2913 74.9592C84.6682 76.0233 83.7719 76.907 82.6926 77.5213L59.0496 90.9788C57.9703 91.5932 56.7459 91.9166 55.4996 91.9166C54.2533 91.9166 53.0289 91.5932 51.9496 90.9788L28.3066 77.5213C27.2273 76.907 26.331 76.0233 25.7079 74.9592C25.0847 73.8951 24.7566 72.688 24.7566 71.4593V44.5408C24.7566 43.3121 25.0847 42.105 25.7079 41.0409C26.331 39.9768 27.2273 39.0932 28.3066 38.4788L51.9496 25.0213C53.0289 24.4069 54.2533 24.0835 55.4996 24.0835C56.7459 24.0835 57.9703 24.4069 59.0496 25.0213Z" fill="#8DDEE6"/>
<path d="M66.8294 44.3589H71.4515L61.8363 54.1904C61.0247 55.0336 60.0475 55.7051 58.9642 56.164C57.8808 56.6229 56.7141 56.8595 55.5351 56.8595C54.356 56.8595 53.1893 56.6229 52.106 56.164C51.0226 55.7051 50.0454 55.0336 49.2338 54.1904L39.6204 44.3589H44.2407L51.5449 51.8279C52.0589 52.3619 52.6779 52.7872 53.3641 53.0778C54.0502 53.3684 54.7892 53.5183 55.5359 53.5183C56.2827 53.5183 57.0217 53.3684 57.7078 53.0778C58.394 52.7872 59.0129 52.3619 59.527 51.8279L66.8294 44.3589ZM44.1822 71.6991H39.5601L49.2338 61.8064C50.0454 60.9632 51.0226 60.2917 52.106 59.8328C53.1893 59.3739 54.356 59.1373 55.5351 59.1373C56.7141 59.1373 57.8808 59.3739 58.9642 59.8328C60.0475 60.2917 61.0247 60.9632 61.8363 61.8064L71.5101 71.6991H66.8897L59.527 64.1689C59.0129 63.6349 58.394 63.2096 57.7078 62.919C57.0217 62.6284 56.2827 62.4785 55.5359 62.4785C54.7892 62.4785 54.0502 62.6284 53.3641 62.919C52.6779 63.2096 52.0589 63.6349 51.5449 64.1689L44.1822 71.6991Z" fill="white"/>
</g>
<defs>
<filter id="filter0_d" x="-4" y="-1" width="119" height="118" filterUnits="userSpaceOnUse" color-interpolation-filters="sRGB">
<feFlood flood-opacity="0" result="BackgroundImageFix"/>
<feColorMatrix in="SourceAlpha" type="matrix" values="0 0 0 0 0 0 0 0 0 0 0 0 0 0 0 0 0 0 127 0"/>
<feOffset/>
<feGaussianBlur stdDeviation="12"/>
<feColorMatrix type="matrix" values="0 0 0 0 0.2 0 0 0 0 0.180392 0 0 0 0 0.329412 0 0 0 0.06 0"/>
<feBlend mode="normal" in2="BackgroundImageFix" result="effect1_dropShadow"/>
<feBlend mode="normal" in="SourceGraphic" in2="effect1_dropShadow" result="shape"/>
</filter>
</defs>
</svg>
